<svg width="37" height="36" viewBox="0 0 37 36" fill="none" xmlns="http://www.w3.org/2000/svg">
<path d="M36.4483 32C36.4483 34.2 34.6483 36 32.4483 36H6.44832C4.24832 36 2.44832 34.2 2.44832 32V19C2.44832 16.8 4.24832 15 6.44832 15H32.4483C34.6483 15 36.4483 16.8 36.4483 19V32Z" fill="#3F7123"/>
<path d="M2.44832 15H36.4483V21H2.44832V15Z" fill="#3F7123"/>
<path d="M2.44832 15H36.4483V22H2.44832V15Z" fill="#CCD6DD"/>
<path d="M2.44832 15H6.44832L2.44832 22V15ZM13.4483 15L9.44832 22H16.4483L20.4483 15H13.4483ZM27.4483 15L23.4483 22H30.4483L34.4483 15H27.4483Z" fill="#292F33"/>
<path d="M0.758316 8.207L33.7513 0L35.4413 6.792L2.44832 15L0.758316 8.207Z" fill="#CCD6DD"/>
<path d="M0.758316 8.207L6.33032 14.034L2.44832 15L0.758316 8.207ZM19.9163 10.655L14.3443 4.827L7.55132 6.517L13.1233 12.345L19.9163 10.655ZM33.5023 7.275L27.9303 1.447L21.1373 3.137L26.7093 8.964L33.5023 7.275Z" fill="#292F33"/>
</svg>
