<svg width="36" height="36" viewBox="0 0 36 36" fill="none" xmlns="http://www.w3.org/2000/svg">
<path d="M18 0C9.716 0 3 6.716 3 15V24H6V15C6 8 11.269 2.812 18 2.812C24.73 2.812 30 8 30 15V25L33 24V15C33 6.716 26.284 0 18 0Z" fill="#66757F"/>
<path d="M6 27C6 28.104 5.104 29 4 29H2C0.896 29 0 28.104 0 27V18C0 16.896 0.896 16 2 16H4C5.104 16 6 16.896 6 18V27ZM36 27C36 28.104 35.104 29 34 29H32C30.896 29 30 28.104 30 27V18C30 16.896 30.896 16 32 16H34C35.104 16 36 16.896 36 18V27Z" fill="#31373D"/>
<path d="M19.182 10.016L12.818 11.329C12.368 11.422 12 11.873 12 12.333V28.518C11.362 28.291 10.659 28.158 9.913 28.158C7.128 28.158 4.871 29.913 4.871 32.08C4.871 34.245 7.129 35.907 9.913 35.907C12.649 35.905 14.922 34 15 32V16.39L19.204 15.518C19.653 15.425 20 14.973 20 14.514V10.682C20 10.224 19.632 9.923 19.182 10.016ZM27.182 13.167L22.885 14.032C22.435 14.125 22 14.576 22 15.035V26.44C22 26.288 21.122 26.2 20.6 26.2C18.576 26.2 16.967 27.476 16.967 29.052C16.967 30.626 18.625 31.903 20.65 31.903C22.675 31.903 24.327 30.626 24.327 29.052L24.313 17.766L27.182 17.168C27.632 17.075 28 16.624 28 16.165V13.835C28 13.376 27.632 13.075 27.182 13.167Z" fill="#55ACEE"/>
</svg>
