<svg width="28" height="36" viewBox="0 0 28 36" fill="none" xmlns="http://www.w3.org/2000/svg">
<path d="M28 36.001V35C28 31 24.315 28 21 28H7C3.687 28 0 31 0 35V36.001H28Z" fill="#2A6797"/>
<path d="M14.003 15.001C20.6304 15.001 26.003 11.6431 26.003 7.501C26.003 3.35886 20.6304 0.001 14.003 0.001C7.37558 0.001 2.003 3.35886 2.003 7.501C2.003 11.6431 7.37558 15.001 14.003 15.001Z" fill="#2A6797"/>
<path d="M9.64 28.101C9.64 28.101 12.488 30.064 14 30.064C15.512 30.064 18.359 28.101 18.359 28.101V24.29H9.639V28.101H9.64Z" fill="#D4AB88"/>
<path d="M9.632 25.702C10.848 27.076 12.356 27.448 13.996 27.448C15.635 27.448 17.142 27.075 18.359 25.702V22.211H9.631V25.702H9.632Z" fill="#CC9B7A"/>
<path d="M5.002 8.5C4.63 9.202 3.91 9.97 3.809 10.788C3.384 14.236 4.331 15.838 4.669 18.431C5.051 21.369 6.63 22.309 7.893 22.702C9.709 25.212 11.64 25.104 14.882 25.104C21.213 25.104 23.97 20.613 24.237 13.088C24.298 11.366 23.858 9.864 23.179 8.501H5.002V8.5Z" fill="#963B22"/>
<path d="M21.16 13.47C20.547 12.583 19.763 11.868 18.044 11.616C18.689 11.925 19.307 12.993 19.387 13.583C19.468 14.173 19.548 14.651 19.038 14.061C16.993 11.697 14.767 12.628 12.56 11.184C11.019 10.175 10.549 9.06 10.549 9.06C10.549 9.06 10.361 10.549 8.024 12.067C7.347 12.507 6.538 13.486 6.09 14.933C5.768 15.973 5.868 16.9 5.868 18.484C5.868 23.109 9.512 26.998 14.008 26.998C18.504 26.998 22.148 23.075 22.148 18.484C22.146 15.605 21.858 14.481 21.16 13.47Z" fill="#D4AB88"/>
<path d="M14 24.467C11.246 24.467 10.4 23.762 10.259 23.619C10.003 23.363 10.003 22.948 10.259 22.692C10.507 22.444 10.905 22.437 11.161 22.669C11.213 22.706 11.882 23.156 14 23.156C16.2 23.156 16.836 22.671 16.842 22.666C17.098 22.411 17.499 22.423 17.755 22.681C18.011 22.937 17.997 23.364 17.741 23.619C17.6 23.762 16.754 24.467 14 24.467ZM14.904 20.847H13.095C12.845 20.847 12.643 20.635 12.643 20.374C12.643 20.113 12.845 19.901 13.095 19.901H14.904C15.154 19.901 15.356 20.113 15.356 20.374C15.357 20.635 15.154 20.847 14.904 20.847Z" fill="#C1694F"/>
<path d="M10.382 17.536C9.883 17.536 9.478 17.112 9.478 16.59V15.644C9.478 15.122 9.883 14.698 10.382 14.698C10.881 14.698 11.286 15.122 11.286 15.644V16.59C11.287 17.112 10.882 17.536 10.382 17.536ZM17.618 17.536C17.119 17.536 16.714 17.112 16.714 16.59V15.644C16.714 15.122 17.119 14.698 17.618 14.698C18.117 14.698 18.522 15.122 18.522 15.644V16.59C18.522 17.112 18.117 17.536 17.618 17.536Z" fill="#662113"/>
<path d="M4.5 8V9C4.5 10.105 8.753 11 14 11C19.247 11 23.5 10.105 23.5 9V8H4.5Z" fill="#2A6797"/>
<path d="M23.001 8V6C23.001 6 19.251 3.75 14 3.75C8.752 3.75 5.002 6 5.002 6V8H23.001Z" fill="#4289C1"/>
<path d="M23.5 8H4.5C4.225 8 4 8.225 4 8.5C4 8.775 4.225 9 4.5 9H23.5C23.775 9 24 8.775 24 8.5C24 8.225 23.775 8 23.5 8Z" fill="#FDCB58"/>
<path d="M15.947 32.277C16.833 32.899 17.759 33.522 18.094 33.656C18.112 33.663 18.11 33.546 18.106 33.542C16.148 31.25 14.022 30.008 14.022 30.008L14.035 29.999L14.021 30H13.991L14.002 30.008C14.002 30.008 11.912 31.233 9.967 33.488C9.98 33.591 10.004 33.646 10.043 33.625C10.34 33.465 11.218 32.859 12.073 32.257C12.112 32.369 12.151 32.47 12.185 32.532C12.341 32.813 12.713 33.438 12.713 33.438C12.713 33.438 11.96 34 11.678 36.001H16.345C16.064 34.406 15.314 33.438 15.314 33.438C15.314 33.438 15.689 32.813 15.845 32.532C15.876 32.473 15.911 32.381 15.947 32.277Z" fill="#193D59"/>
<path d="M14.001 30.008C14.001 30.008 13.991 30.002 13.99 30C13.866 29.916 9.85 27.183 9.292 26.625C9.021 26.354 8.322 27.53 8.334 27.833C8.375 28.917 9.72 33.772 9.917 33.542L9.966 33.488C11.911 31.232 14.001 30.008 14.001 30.008ZM14.021 30.008C14.021 30.008 16.147 31.25 18.105 33.542C18.109 33.547 18.116 33.537 18.121 33.537C18.358 33.566 19.648 28.895 19.688 27.833C19.7 27.53 19 26.354 18.73 26.625C18.173 27.182 14.17 29.907 14.034 29.999L14.021 30.008Z" fill="#4289C1"/>
<path d="M14.016 30.688C13.454 30.719 12.564 31.629 12.657 32.016C13.084 33.801 13.436 33.328 14.048 33.328C14.59 33.328 14.978 33.765 15.439 31.937C15.559 31.459 14.405 30.665 14.016 30.688ZM14.042 33.833C12.565 33.833 12.023 36 12.023 36H16.046C16.047 36 15.519 33.833 14.042 33.833Z" fill="#1E4B6E"/>
<path d="M16.25 1.501H16.248C16.015 1.502 15.815 1.615 15.678 1.783C15.397 1.852 15.011 1.867 14.521 1.712C14.385 1.583 14.203 1.501 14 1.501C13.799 1.501 13.616 1.583 13.481 1.713C12.99 1.868 12.604 1.853 12.324 1.784C12.186 1.616 11.986 1.502 11.753 1.502H11.751C11.336 1.502 11.001 1.837 11.001 2.252C11.001 2.666 11.336 3.002 11.751 3.002H11.753C11.753 6.002 13.251 6.752 14 6.752C14.751 6.752 16.248 6.002 16.248 3.002H16.25C16.666 3.002 17.001 2.666 17.001 2.252C17.001 1.836 16.666 1.501 16.25 1.501Z" fill="#FDCB58"/>
<path d="M7.51 29.389L1.772 31.143C1.509 31.223 1.228 31.075 1.147 30.811L0.854 29.854C0.774 29.592 0.923 29.311 1.186 29.23L6.924 27.476C7.187 27.396 7.468 27.545 7.548 27.807L7.84 28.764C7.923 29.027 7.773 29.307 7.51 29.389Z" fill="#4289C1"/>
<path d="M6.55 29.192C6.86812 29.192 7.126 28.9341 7.126 28.616C7.126 28.2979 6.86812 28.04 6.55 28.04C6.23188 28.04 5.974 28.2979 5.974 28.616C5.974 28.9341 6.23188 29.192 6.55 29.192Z" fill="white"/>
<path d="M20.502 29.389L26.24 31.143C26.504 31.223 26.784 31.075 26.865 30.811L27.158 29.854C27.238 29.592 27.089 29.311 26.826 29.23L21.087 27.476C20.824 27.396 20.543 27.545 20.463 27.807L20.171 28.764C20.09 29.027 20.239 29.307 20.502 29.389Z" fill="#4289C1"/>
<path d="M21.268 29.165C21.5861 29.165 21.844 28.9071 21.844 28.589C21.844 28.2709 21.5861 28.013 21.268 28.013C20.9499 28.013 20.692 28.2709 20.692 28.589C20.692 28.9071 20.9499 29.165 21.268 29.165Z" fill="white"/>
</svg>
