<svg width="36" height="35" viewBox="0 0 36 35" fill="none" xmlns="http://www.w3.org/2000/svg">
<path d="M8.07229 7.19313C4.38629 10.8791 1.95829 15.8091 1.16129 20.7741L14.9833 34.5961C19.9483 33.7991 24.8783 31.3711 28.5643 27.6851C32.2503 23.9991 34.6783 19.0691 35.4753 14.1041L21.6533 0.282134C16.6883 1.07913 11.7583 3.50713 8.07229 7.19313ZM33.6873 2.07013C31.0253 0.591134 27.9523 -0.0508659 24.7903 0.00313406L35.7553 10.9671C35.8083 7.80513 35.1663 4.73213 33.6873 2.07013ZM2.94929 32.8081C5.61129 34.2871 8.68529 34.9291 11.8473 34.8751L0.882292 23.9111C0.828292 27.0721 1.47029 30.1461 2.94929 32.8081Z" fill="#662113"/>
<path d="M23.1463 11.1961L20.7323 13.6101L20.0253 12.9031C19.6343 12.5121 19.0023 12.5121 18.6113 12.9031C18.2203 13.2941 18.2203 13.9271 18.6113 14.3171L19.3183 15.0251L15.9043 18.4391L15.1973 17.7321C14.8063 17.3411 14.1743 17.3411 13.7833 17.7321C13.3923 18.1231 13.3923 18.7551 13.7833 19.1461L14.4903 19.8531L12.0763 22.2671L11.3693 21.5601C10.9783 21.1691 10.3463 21.1691 9.95529 21.5601C9.56429 21.9511 9.56429 22.5841 9.95529 22.9741L10.6623 23.6811L9.66229 24.6811C9.27129 25.0731 9.27129 25.7051 9.66229 26.0961C10.0533 26.4871 10.6853 26.4871 11.0763 26.0961L12.0763 25.0961L12.7833 25.8031C13.1743 26.1941 13.8063 26.1941 14.1973 25.8031C14.5883 25.4111 14.5883 24.7791 14.1973 24.3891L13.4903 23.6821L15.9043 21.2681L16.6113 21.9751C17.0023 22.3671 17.6343 22.3671 18.0253 21.9751C18.4163 21.5841 18.4163 20.9511 18.0253 20.5611L17.3183 19.8531L20.7323 16.4391L21.4393 17.1461C21.8303 17.5371 22.4633 17.5371 22.8533 17.1461C23.2443 16.7551 23.2453 16.1231 22.8533 15.7321L22.1463 15.0251L24.5603 12.6111L25.2673 13.3181C25.6583 13.7091 26.2903 13.7081 26.6813 13.3181C27.0723 12.9271 27.0723 12.2951 26.6813 11.9041L25.9743 11.1971L26.9743 10.1971C27.3643 9.80613 27.3643 9.17413 26.9743 8.78313C26.5833 8.39213 25.9503 8.39213 25.5593 8.78313L24.5593 9.78313L23.8523 9.07613C23.4623 8.68513 22.8283 8.68513 22.4383 9.07613C22.0473 9.46613 22.0473 10.0991 22.4383 10.4901L23.1463 11.1961ZM0.882294 23.9111L11.8473 34.8761C12.8873 34.8581 13.9353 34.7651 14.9833 34.5971L1.16129 20.7741C0.993294 21.8231 0.900294 22.8701 0.882294 23.9111ZM24.7903 0.00313407C23.7503 0.0211341 22.7023 0.114134 21.6543 0.282134L35.4763 14.1041C35.6443 13.0551 35.7373 12.0081 35.7553 10.9681L24.7903 0.00313407Z" fill="#E1E8ED"/>
</svg>
