<svg width="34" height="35" viewBox="0 0 34 35" fill="none" xmlns="http://www.w3.org/2000/svg">
<path d="M30.9464 27.79C28.7914 26.705 5.10144 26.705 2.94644 27.79C-1.04856 29.801 0.946444 34.79 0.946444 34.79H32.9464C32.9464 34.79 34.9414 29.801 30.9464 27.79Z" fill="#292F33"/>
<path d="M10.9464 34.79L8.94644 31.79L16.9464 33.79L24.9464 31.79L22.9464 34.79H10.9464Z" fill="#99AAB5"/>
<path d="M16.9464 30.79L18.9464 31.79L16.9464 34.79L14.9464 31.79L16.9464 30.79Z" fill="#99AAB5"/>
<path d="M12.5864 26.891C14.3304 28.159 15.4344 28.854 16.9464 28.854C18.4584 28.854 19.5614 28.158 21.3054 26.891V23.08H12.5854V26.891H12.5864Z" fill="#D4AB88"/>
<path d="M12.5784 24.29C12.9464 26.317 15.3024 26.509 16.9424 26.509C18.5814 26.509 20.9464 26.318 21.3054 24.29V21.271H12.5774V24.29H12.5784Z" fill="#CC9B7A"/>
<path d="M10.3904 14.726C10.3904 16.174 9.65644 17.348 8.75144 17.348C7.84644 17.348 7.11244 16.174 7.11244 14.726C7.11244 13.278 7.84644 12.103 8.75144 12.103C9.65644 12.102 10.3904 13.277 10.3904 14.726ZM26.7794 14.726C26.7794 16.174 26.0464 17.348 25.1404 17.348C24.2354 17.348 23.5014 16.174 23.5014 14.726C23.5014 13.278 24.2344 12.103 25.1404 12.103C26.0464 12.102 26.7794 13.277 26.7794 14.726Z" fill="#D4AB88"/>
<path d="M16.9464 5.79C11.9464 5.79 8.94644 7.79 8.94644 10.79C8.94644 13.79 8.94644 19.79 10.9464 22.79C12.9464 25.79 14.9464 25.79 16.9464 25.79C18.9464 25.79 20.9464 25.79 22.9464 22.79C24.9464 19.79 24.9464 13.79 24.9464 10.79C24.9464 7.79 21.9464 5.79 16.9464 5.79Z" fill="#D4AB88"/>
<path d="M17.7674 1.908C18.6264 1.978 20.2594 0.649 21.9444 1.167C20.9074 1.988 22.2264 3.075 23.0204 3.636C23.4894 3.967 25.7804 3.926 26.1354 4.322C24.4064 5.1 25.2574 6.072 25.5604 6.816C25.9444 7.761 26.1234 8.765 26.1234 9.758C26.1234 13.362 25.4174 14.805 24.7114 13.362C24.0054 11.921 23.3554 9.994 23.3554 9.994C23.3554 9.994 19.0634 10.479 17.6514 9.037L18.1544 10.833C18.1544 10.833 16.7584 10.501 15.2454 8.514L14.7264 10.286C14.7264 10.286 13.7554 9.809 12.0034 8.317C12.0034 8.317 9.88544 9.759 9.17944 13.363C8.98344 14.364 7.76744 13.363 7.76744 9.759C7.76744 8.545 7.80444 7.063 8.28644 5.851C8.63344 4.978 9.80044 4.106 8.33144 2.766C9.97344 2.031 11.6384 3.484 12.6754 3.589C13.2194 2.721 15.5454 0.223 16.4994 0C16.3264 1.081 16.7914 1.829 17.7674 1.908Z" fill="#963B22"/>
<path d="M16.9464 11.79L21.9464 10.79L22.9464 8.79L24.9464 10.79L23.9464 13.79L24.9464 15.79L22.9464 17.79L21.9464 19.79L20.9464 17.79L16.9464 15.79L12.9464 17.79L11.9464 19.79L10.9464 17.79L8.94644 15.79L9.94644 13.79L8.94644 10.79L10.9464 8.79L11.9464 10.79L16.9464 11.79Z" fill="#BE1931"/>
<path d="M14.4464 14.29C14.4464 14.84 13.9964 15.29 13.4464 15.29H12.4464C11.8964 15.29 11.4464 14.84 11.4464 14.29C11.4464 13.74 11.8964 13.29 12.4464 13.29H13.4464C13.9964 13.29 14.4464 13.74 14.4464 14.29ZM22.4464 14.29C22.4464 13.74 21.9964 13.29 21.4464 13.29H20.4464C19.8964 13.29 19.4464 13.74 19.4464 14.29C19.4464 14.84 19.8964 15.29 20.4464 15.29H21.4464C21.9964 15.29 22.4464 14.84 22.4464 14.29Z" fill="black"/>
<path d="M17.6964 18.54H16.1964C15.7834 18.54 15.4464 18.203 15.4464 17.79C15.4464 17.377 15.7834 17.04 16.1964 17.04H17.6964C18.1094 17.04 18.4464 17.377 18.4464 17.79C18.4464 18.203 18.1094 18.54 17.6964 18.54ZM19.7804 19.969C19.0894 20.27 17.8024 20.79 16.6724 20.79H14.4464C14.1714 20.79 13.9464 21.015 13.9464 21.29C13.9464 21.565 14.1714 21.79 14.4464 21.79H18.6504C18.6564 21.79 18.6574 21.787 18.6634 21.787L18.7314 21.79C19.3124 21.79 19.7474 21.161 19.9834 20.655C20.2654 20.05 20.2444 19.768 19.7804 19.969Z" fill="#C1694F"/>
<path d="M31.9465 27.79C31.1365 26.491 25.9465 25.79 22.9465 25.79C21.9465 25.79 19.9465 28.853 16.9465 28.853C13.9465 28.853 11.9465 25.79 10.9465 25.79C7.94645 25.79 2.75645 26.491 1.94645 27.79C0.449451 30.19 5.94645 30.79 7.94645 30.79C9.94645 30.79 12.7194 29.79 16.9465 29.79C21.1735 29.79 23.9465 30.79 25.9465 30.79C27.9465 30.79 33.4435 30.19 31.9465 27.79Z" fill="#BE1931"/>
<path d="M4.76445 24.671C5.45545 24.601 7.29245 27.371 7.21445 27.824C7.13645 28.278 3.00245 28.442 2.77145 28.074C2.54045 27.706 4.07345 24.741 4.76445 24.671ZM7.07545 26.413C7.24845 26.683 10.3004 26.53 10.3554 26.194C10.4094 25.858 9.03145 23.827 8.52145 23.884C8.01145 23.94 6.90245 26.142 7.07545 26.413ZM31.1074 28.074C30.8774 28.443 26.7434 28.278 26.6644 27.824C26.5864 27.37 28.4234 24.601 29.1144 24.671C29.8064 24.741 31.3384 27.706 31.1074 28.074ZM25.3574 23.884C24.8474 23.827 23.4694 25.859 23.5234 26.194C23.5774 26.53 26.6294 26.683 26.8034 26.413C26.9764 26.142 25.8674 23.94 25.3574 23.884Z" fill="#99AAB5"/>
</svg>
