<svg xmlns="http://www.w3.org/2000/svg" xmlns:xlink="http://www.w3.org/1999/xlink" width="336" zoomAndPan="magnify" viewBox="0 0 252 200.249992" height="267" preserveAspectRatio="xMidYMid meet" version="1.0"><defs><g/><clipPath id="ba682eab03"><path d="M 0.46875 0 L 251.527344 0 L 251.527344 199.503906 L 0.46875 199.503906 Z M 0.46875 0 " clip-rule="nonzero"/></clipPath><clipPath id="8a53b3b986"><path d="M 68 0.160156 L 165 0.160156 L 165 118 L 68 118 Z M 68 0.160156 " clip-rule="nonzero"/></clipPath><clipPath id="0ddacd8607"><path d="M 82.261719 18.507812 L 165.558594 18.507812 L 165.558594 107.878906 L 82.261719 107.878906 Z M 82.261719 18.507812 " clip-rule="nonzero"/></clipPath><clipPath id="2e6964d66f"><path d="M 52 141 L 202 141 L 202 199.503906 L 52 199.503906 Z M 52 141 " clip-rule="nonzero"/></clipPath><clipPath id="dde42f3a08"><path d="M 52.3125 151.230469 L 198.507812 141.710938 L 201.648438 189.949219 L 55.453125 199.464844 Z M 52.3125 151.230469 " clip-rule="nonzero"/></clipPath><clipPath id="f744729ace"><path d="M 52.3125 151.230469 L 198.507812 141.710938 L 201.648438 189.949219 L 55.453125 199.464844 Z M 52.3125 151.230469 " clip-rule="nonzero"/></clipPath></defs><g clip-path="url(#ba682eab03)"><path fill="#ffffff" d="M 0.46875 0 L 251.53125 0 L 251.53125 199.503906 L 0.46875 199.503906 Z M 0.46875 0 " fill-opacity="1" fill-rule="nonzero"/></g><g clip-path="url(#8a53b3b986)"><path fill="#f8e505" d="M 161.34375 104.914062 C 158.257812 108.628906 151.230469 111.113281 146.972656 112.855469 C 128.707031 120.324219 108.632812 118.71875 90.480469 111.667969 C 80.867188 107.933594 74.1875 104.734375 70.808594 95.460938 C 65.910156 82.027344 69.921875 67.105469 76.074219 54.773438 C 77.3125 52.289062 78.964844 49.3125 80.28125 47.21875 C 84.496094 40.511719 87.09375 39.613281 92.355469 46.019531 C 94.910156 49.125 105.492188 62.808594 111.203125 59.210938 C 114.988281 56.832031 101.394531 45.433594 99.957031 42.683594 C 95.238281 33.664062 92.734375 23.644531 96.484375 19.679688 C 103.332031 12.449219 106.636719 8.050781 117.507812 3.957031 C 116.617188 3.242188 114.425781 1.664062 115.164062 0.160156 C 132.023438 1.078125 142.476562 1.824219 149.730469 18.988281 C 149.730469 18.988281 152.628906 27.648438 152.035156 30.644531 C 151.441406 33.640625 146.140625 45.410156 146.140625 45.410156 C 139.578125 61.074219 162.382812 68.527344 164.304688 84.421875 C 164.4375 90.089844 165.335938 100.117188 161.34375 104.914062 " fill-opacity="1" fill-rule="nonzero"/></g><path fill="#ffffff" d="M 135.882812 17.808594 C 135.421875 18.304688 134.464844 18.164062 133.746094 17.496094 C 133.023438 16.824219 132.816406 15.878906 133.277344 15.382812 C 133.738281 14.886719 134.699219 15.027344 135.417969 15.695312 C 136.136719 16.367188 136.34375 17.3125 135.882812 17.808594 " fill-opacity="1" fill-rule="nonzero"/><g clip-path="url(#0ddacd8607)"><path fill="#f47b06" d="M 105.089844 104.972656 C 102.8125 104.167969 100.28125 102.945312 98.691406 101.066406 C 98.039062 100.289062 97.472656 99.484375 97.242188 98.480469 C 97.121094 97.957031 97.632812 95.640625 97.476562 95.429688 C 96.738281 94.425781 92.300781 94.085938 90.902344 93.292969 C 88.703125 92.046875 86.878906 90.058594 86.410156 87.5 C 85.949219 84.988281 86.8125 82.585938 88.671875 80.835938 C 91.117188 78.535156 91.25 79.65625 89.605469 76.507812 C 88.476562 74.347656 87.425781 71.875 87.246094 69.414062 C 87.171875 68.390625 87.566406 63.597656 88.847656 63.519531 C 84.945312 63.757812 83.125 66.78125 83.238281 70.351562 C 83.339844 73.652344 86.480469 76.648438 86.585938 79.503906 C 86.65625 81.398438 86.542969 80.398438 84.691406 82.136719 C 83.722656 83.050781 82.9375 84.199219 82.554688 85.488281 C 81.4375 89.238281 83.730469 92.785156 86.921875 94.597656 C 88.488281 95.484375 90.585938 95.453125 92.042969 96.300781 C 94.320312 97.628906 92.671875 96.355469 93.117188 99.214844 C 93.585938 102.195312 96.433594 104.113281 98.933594 105.355469 C 106.761719 109.25 116.355469 108.09375 124.222656 104.9375 C 117.910156 106.703125 111.371094 107.199219 105.089844 104.972656 Z M 165.457031 24.199219 C 165.121094 26.519531 164.234375 28.953125 162.515625 30.640625 C 162.164062 30.988281 159.257812 32.71875 159.613281 32.851562 C 165.617188 35.089844 162.199219 37.773438 157.785156 39.21875 C 154.519531 40.289062 150.921875 40.878906 148.203125 43.144531 C 145.695312 45.230469 146.125 45.574219 142.503906 44.734375 C 139.621094 44.066406 136.773438 43.070312 134.28125 41.445312 C 130.492188 38.980469 125.683594 33.269531 128.121094 28.332031 C 130.335938 23.84375 137.554688 28.628906 141.210938 24.855469 C 143 23.011719 143.671875 19.578125 146.46875 18.734375 C 148.40625 18.152344 151.199219 19.375 153.210938 19.511719 C 157.296875 19.796875 166.636719 16.0625 165.457031 24.199219 " fill-opacity="1" fill-rule="nonzero"/></g><path fill="#110f0d" d="M 129.578125 85.792969 C 129.511719 86.113281 129.230469 86.335938 128.914062 86.335938 C 128.871094 86.335938 128.824219 86.332031 128.78125 86.320312 C 128.722656 86.308594 123.054688 85.1875 112.085938 85.03125 C 100.878906 84.875 91.304688 79.996094 90.902344 79.789062 C 90.566406 79.617188 90.4375 79.207031 90.609375 78.875 C 90.78125 78.542969 91.191406 78.410156 91.523438 78.582031 C 91.621094 78.632812 101.230469 83.523438 112.105469 83.675781 C 123.21875 83.832031 128.816406 84.945312 129.050781 84.992188 C 129.417969 85.066406 129.652344 85.425781 129.578125 85.792969 Z M 116.667969 96.542969 C 116.734375 96.910156 116.492188 97.261719 116.121094 97.328125 C 113.976562 97.714844 111.878906 97.867188 109.914062 97.867188 C 102.964844 97.867188 97.613281 95.980469 97.328125 95.878906 C 96.976562 95.753906 96.792969 95.363281 96.921875 95.011719 C 97.046875 94.660156 97.4375 94.476562 97.789062 94.601562 C 97.875 94.632812 106.527344 97.675781 115.882812 95.996094 C 116.25 95.929688 116.605469 96.171875 116.667969 96.542969 Z M 139.980469 83.238281 C 141.261719 87.527344 140.601562 92.652344 138.300781 96.296875 C 138.171875 96.503906 137.953125 96.613281 137.726562 96.613281 C 137.605469 96.613281 137.476562 96.582031 137.367188 96.511719 C 137.050781 96.3125 136.953125 95.890625 137.15625 95.574219 C 139.253906 92.246094 139.855469 87.554688 138.679688 83.628906 C 138.019531 81.421875 136.503906 78.457031 133.027344 76.871094 C 127.636719 74.417969 124.105469 73.542969 119.222656 72.335938 C 117.433594 71.890625 115.40625 71.390625 113.046875 70.75 C 104.28125 68.375 96.058594 63.375 95.976562 63.324219 C 95.65625 63.128906 95.558594 62.714844 95.753906 62.394531 C 95.949219 62.074219 96.367188 61.972656 96.683594 62.167969 C 96.765625 62.21875 104.828125 67.117188 113.402344 69.441406 C 115.746094 70.078125 117.769531 70.578125 119.550781 71.019531 C 124.503906 72.242188 128.082031 73.128906 133.589844 75.636719 C 136.707031 77.058594 138.917969 79.6875 139.980469 83.238281 Z M 161.367188 29.371094 C 161.191406 29.476562 159.082031 30.792969 156.1875 32.167969 L 159.300781 32.058594 C 159.667969 32.035156 159.988281 32.339844 160 32.714844 C 160.015625 33.089844 159.722656 33.402344 159.347656 33.414062 L 152.742188 33.644531 C 150.582031 34.464844 148.269531 35.132812 146.121094 35.328125 C 145.40625 35.394531 144.703125 35.425781 144.023438 35.425781 C 138.558594 35.425781 134.285156 33.503906 132.578125 32.601562 L 132.511719 32.566406 C 132.191406 32.417969 132.035156 32.042969 132.160156 31.710938 C 132.292969 31.359375 132.6875 31.183594 133.035156 31.316406 C 133.054688 31.324219 133.113281 31.351562 133.210938 31.402344 C 135.027344 32.363281 139.902344 34.535156 145.996094 33.980469 C 152.34375 33.398438 160.5625 28.273438 160.644531 28.222656 C 160.960938 28.023438 161.378906 28.117188 161.578125 28.433594 C 161.777344 28.75 161.683594 29.171875 161.367188 29.371094 Z M 133.8125 15.882812 C 134.085938 15.589844 134.648438 15.671875 135.074219 16.066406 C 135.496094 16.460938 135.621094 17.019531 135.347656 17.308594 C 135.078125 17.601562 134.511719 17.519531 134.085938 17.125 C 133.664062 16.730469 133.539062 16.171875 133.8125 15.882812 Z M 132.957031 21.351562 C 137.808594 24.066406 138.972656 18.140625 135.785156 15.410156 C 135.777344 15.414062 134.632812 14.699219 134.441406 14.644531 C 134.101562 14.542969 133.703125 14.488281 133.335938 14.476562 C 130.6875 14.136719 130 19.691406 132.957031 21.351562 " fill-opacity="1" fill-rule="nonzero"/><g clip-path="url(#2e6964d66f)"><g clip-path="url(#dde42f3a08)"><g clip-path="url(#f744729ace)"><path fill="#19191b" d="M 52.3125 151.230469 L 198.507812 141.710938 L 201.648438 189.949219 L 55.453125 199.464844 Z M 52.3125 151.230469 " fill-opacity="1" fill-rule="nonzero"/></g></g></g><g fill="#f8e505" fill-opacity="1"><g transform="translate(64.908059, 132.232275)"><g><path d="M 25.140625 -19.671875 C 25.285156 -17.578125 25.15625 -15.675781 24.75 -13.96875 C 24.34375 -12.257812 23.703125 -10.71875 22.828125 -9.34375 C 21.960938 -7.96875 20.90625 -6.765625 19.65625 -5.734375 C 18.40625 -4.703125 17.007812 -3.820312 15.46875 -3.09375 C 13.9375 -2.375 12.289062 -1.800781 10.53125 -1.375 C 8.769531 -0.957031 6.953125 -0.679688 5.078125 -0.546875 C 4.367188 -0.492188 3.679688 -0.460938 3.015625 -0.453125 C 2.347656 -0.453125 1.660156 -0.460938 0.953125 -0.484375 L -0.625 -30.5 C 0.96875 -31.132812 2.625 -31.625 4.34375 -31.96875 C 6.0625 -32.3125 7.78125 -32.546875 9.5 -32.671875 C 11.613281 -32.828125 13.585938 -32.648438 15.421875 -32.140625 C 17.265625 -31.628906 18.878906 -30.816406 20.265625 -29.703125 C 21.660156 -28.585938 22.78125 -27.1875 23.625 -25.5 C 24.46875 -23.8125 24.972656 -21.867188 25.140625 -19.671875 Z M 16.078125 -17.5625 C 16.046875 -18.375 15.90625 -19.144531 15.65625 -19.875 C 15.414062 -20.613281 15.0625 -21.25 14.59375 -21.78125 C 14.125 -22.320312 13.550781 -22.742188 12.875 -23.046875 C 12.195312 -23.359375 11.40625 -23.488281 10.5 -23.4375 L 10.609375 -9.53125 C 11.492188 -9.726562 12.285156 -10.082031 12.984375 -10.59375 C 13.679688 -11.101562 14.265625 -11.707031 14.734375 -12.40625 C 15.210938 -13.113281 15.566406 -13.878906 15.796875 -14.703125 C 16.035156 -15.535156 16.140625 -16.382812 16.109375 -17.25 Z M 16.078125 -17.5625 "/></g></g></g><g fill="#f8e505" fill-opacity="1"><g transform="translate(90.634119, 130.341427)"><g><path d="M 25.4375 -33.5 C 25.15625 -28.195312 24.96875 -22.929688 24.875 -17.703125 C 24.78125 -12.484375 24.710938 -7.234375 24.671875 -1.953125 L 15.546875 -0.609375 L 15.703125 -4.0625 C 15.429688 -3.707031 15.109375 -3.390625 14.734375 -3.109375 C 14.359375 -2.828125 13.953125 -2.59375 13.515625 -2.40625 C 13.085938 -2.21875 12.632812 -2.070312 12.15625 -1.96875 C 11.675781 -1.863281 11.222656 -1.800781 10.796875 -1.78125 C 9.773438 -1.71875 8.804688 -1.84375 7.890625 -2.15625 C 6.972656 -2.476562 6.117188 -2.925781 5.328125 -3.5 C 4.535156 -4.070312 3.8125 -4.757812 3.15625 -5.5625 C 2.507812 -6.363281 1.945312 -7.210938 1.46875 -8.109375 C 0.988281 -9.003906 0.601562 -9.929688 0.3125 -10.890625 C 0.0195312 -11.847656 -0.15625 -12.78125 -0.21875 -13.6875 C -0.320312 -15.019531 -0.398438 -16.40625 -0.453125 -17.84375 C -0.503906 -19.289062 -0.515625 -20.738281 -0.484375 -22.1875 C -0.453125 -23.644531 -0.378906 -25.085938 -0.265625 -26.515625 C -0.148438 -27.941406 0.0195312 -29.320312 0.25 -30.65625 C 2.0625 -30.6875 3.882812 -30.734375 5.71875 -30.796875 C 7.550781 -30.859375 9.378906 -30.972656 11.203125 -31.140625 C 10.953125 -29.816406 10.707031 -28.488281 10.46875 -27.15625 C 10.238281 -25.832031 10.035156 -24.5 9.859375 -23.15625 C 9.679688 -21.820312 9.5625 -20.484375 9.5 -19.140625 C 9.4375 -17.804688 9.457031 -16.46875 9.5625 -15.125 C 9.582031 -14.8125 9.625 -14.363281 9.6875 -13.78125 C 9.757812 -13.195312 9.878906 -12.625 10.046875 -12.0625 C 10.222656 -11.507812 10.457031 -11.03125 10.75 -10.625 C 11.039062 -10.226562 11.425781 -10.046875 11.90625 -10.078125 C 12.46875 -10.117188 12.953125 -10.394531 13.359375 -10.90625 C 13.765625 -11.425781 14.109375 -12.109375 14.390625 -12.953125 C 14.679688 -13.796875 14.90625 -14.765625 15.0625 -15.859375 C 15.226562 -16.953125 15.351562 -18.085938 15.4375 -19.265625 C 15.53125 -20.453125 15.585938 -21.644531 15.609375 -22.84375 C 15.628906 -24.039062 15.625 -25.160156 15.59375 -26.203125 C 15.570312 -27.253906 15.539062 -28.203125 15.5 -29.046875 C 15.46875 -29.890625 15.429688 -30.539062 15.390625 -31 C 15.367188 -31.300781 15.335938 -31.585938 15.296875 -31.859375 C 15.265625 -32.140625 15.222656 -32.429688 15.171875 -32.734375 C 16.140625 -32.773438 17.101562 -32.820312 18.0625 -32.875 C 19.019531 -32.9375 19.984375 -33 20.953125 -33.0625 C 21.703125 -33.125 22.445312 -33.1875 23.1875 -33.25 C 23.925781 -33.3125 24.675781 -33.394531 25.4375 -33.5 Z M 25.4375 -33.5 "/></g></g></g><g fill="#f8e505" fill-opacity="1"><g transform="translate(117.677709, 128.353742)"><g><path d="M 20.203125 -32.171875 L 20.09375 -22.671875 C 19.644531 -22.753906 19.210938 -22.800781 18.796875 -22.8125 C 18.378906 -22.832031 17.953125 -22.828125 17.515625 -22.796875 C 16.460938 -22.710938 15.460938 -22.5 14.515625 -22.15625 C 13.578125 -21.820312 12.757812 -21.351562 12.0625 -20.75 C 11.375 -20.144531 10.835938 -19.40625 10.453125 -18.53125 C 10.078125 -17.65625 9.929688 -16.644531 10.015625 -15.5 C 10.078125 -14.675781 10.253906 -13.960938 10.546875 -13.359375 C 10.835938 -12.765625 11.222656 -12.273438 11.703125 -11.890625 C 12.191406 -11.515625 12.765625 -11.242188 13.421875 -11.078125 C 14.085938 -10.921875 14.816406 -10.875 15.609375 -10.9375 C 16.160156 -10.976562 16.722656 -11.070312 17.296875 -11.21875 C 17.867188 -11.375 18.4375 -11.570312 19 -11.8125 C 19.5625 -12.050781 20.097656 -12.316406 20.609375 -12.609375 C 21.128906 -12.898438 21.613281 -13.207031 22.0625 -13.53125 L 22.484375 -3 C 21.921875 -2.65625 21.3125 -2.34375 20.65625 -2.0625 C 20.007812 -1.789062 19.335938 -1.539062 18.640625 -1.3125 C 17.941406 -1.09375 17.242188 -0.910156 16.546875 -0.765625 C 15.847656 -0.628906 15.175781 -0.535156 14.53125 -0.484375 C 12.425781 -0.328125 10.476562 -0.582031 8.6875 -1.25 C 6.894531 -1.914062 5.320312 -2.878906 3.96875 -4.140625 C 2.625 -5.410156 1.539062 -6.921875 0.71875 -8.671875 C -0.09375 -10.429688 -0.570312 -12.332031 -0.71875 -14.375 C -0.90625 -16.8125 -0.722656 -19.109375 -0.171875 -21.265625 C 0.367188 -23.429688 1.253906 -25.34375 2.484375 -27 C 3.710938 -28.65625 5.285156 -30 7.203125 -31.03125 C 9.128906 -32.0625 11.378906 -32.675781 13.953125 -32.875 C 14.984375 -32.945312 16.03125 -32.941406 17.09375 -32.859375 C 18.15625 -32.773438 19.191406 -32.546875 20.203125 -32.171875 Z M 20.203125 -32.171875 "/></g></g></g><g fill="#f8e505" fill-opacity="1"><g transform="translate(140.210431, 126.697603)"><g><path d="M 26.453125 -30.953125 L 17.46875 -18.484375 L 27.65625 -3.796875 L 17.421875 -1.1875 L 9.953125 -9.890625 L 10.234375 -1.109375 L 0.984375 -0.078125 L -0.640625 -32.09375 L 9.796875 -32.296875 L 9.671875 -23.03125 L 15.46875 -32.859375 Z M 26.453125 -30.953125 "/></g></g></g><path stroke-linecap="butt" transform="matrix(0.90283, -0.0663574, 0.0663574, 0.90283, 13.320171, 96.084844)" fill="none" stroke-linejoin="miter" d="M 83.194137 24.361508 C 83.193383 26.66757 82.897649 28.748597 82.30263 30.604274 C 81.711915 32.460266 80.881215 34.108247 79.818821 35.553151 C 78.752439 36.993435 77.488474 38.237477 76.018952 39.276037 C 74.553733 40.314913 72.946559 41.165962 71.197113 41.833487 C 69.447351 42.505315 67.589745 42.99615 65.619043 43.318586 C 63.648341 43.641021 61.624474 43.803789 59.547759 43.802585 C 58.76903 43.801596 58.0134 43.780671 57.272262 43.739178 C 56.526821 43.697369 55.769734 43.637397 54.992711 43.554326 L 55.688871 10.359329 C 57.500845 9.782933 59.369655 9.375129 61.290997 9.135599 C 63.212339 8.896069 65.120521 8.776718 67.015544 8.777547 C 69.373879 8.77349 71.541167 9.131811 73.522658 9.839917 C 75.499846 10.547707 77.207384 11.568831 78.640652 12.907277 C 80.078539 14.241736 81.196084 15.872825 81.992971 17.804845 C 82.794476 19.732878 83.192102 21.916787 83.194137 24.361508 Z M 73.052929 25.943887 C 73.066445 25.053585 72.973833 24.194424 72.766168 23.370072 C 72.562807 22.546037 72.222752 21.815796 71.75461 21.17998 C 71.282164 20.543848 70.683721 20.032582 69.95928 19.646182 C 69.234838 19.259782 68.367694 19.048941 67.361832 19.018277 L 66.373202 34.3529 C 67.361907 34.204909 68.259983 33.877189 69.071415 33.374362 C 69.878544 32.871217 70.572768 32.255934 71.159023 31.520222 C 71.744962 30.788814 72.198884 29.969822 72.520158 29.071854 C 72.841432 28.173886 73.017971 27.243646 73.053445 26.290059 Z M 113.147995 9.169866 C 112.40526 14.977919 111.773273 20.750845 111.24248 26.500922 C 110.716306 32.247012 110.213422 38.029427 109.733513 43.852471 L 99.593419 44.595557 L 100.037823 40.786133 C 99.707167 41.164211 99.32373 41.495143 98.887827 41.774625 C 98.451925 42.054107 97.985391 42.279417 97.492212 42.455176 C 96.995045 42.626315 96.484145 42.748851 95.95489 42.826771 C 95.430255 42.900705 94.926313 42.928565 94.447368 42.91067 C 93.328036 42.8933 92.270908 42.677148 91.280919 42.253924 C 90.290615 41.835003 89.384222 41.275143 88.561742 40.574344 C 87.734959 39.873228 86.994494 39.05731 86.336043 38.126272 C 85.673289 37.194919 85.118245 36.210909 84.665976 35.182532 C 84.20972 34.149536 83.862947 33.098627 83.625973 32.025501 C 83.384381 30.956362 83.266005 29.917913 83.266545 28.909838 C 83.26745 27.425855 83.293984 25.887509 83.354437 24.299736 C 83.410903 22.707344 83.51534 21.109824 83.663127 19.511163 C 83.810914 17.912503 84.00509 16.330232 84.245971 14.760047 C 84.482233 13.193849 84.782921 11.69296 85.147719 10.261683 C 87.156911 10.357438 89.17933 10.449837 91.207001 10.529643 C 93.234356 10.613752 95.257532 10.63698 97.26729 10.607303 C 96.889266 12.041934 96.515228 13.481185 96.14119 14.920436 C 95.771139 16.364307 95.4352 17.815011 95.141662 19.277486 C 94.844137 20.73534 94.602557 22.197307 94.420908 23.668005 C 94.239575 25.1344 94.151969 26.620663 94.150116 28.117556 C 94.150632 28.463728 94.166215 28.958115 94.200852 29.605335 C 94.231501 30.247935 94.319044 30.881737 94.459177 31.506425 C 94.598994 32.135416 94.813991 32.683399 95.103853 33.154677 C 95.394031 33.621653 95.800585 33.859214 96.328449 33.859072 C 96.955926 33.857598 97.516311 33.591592 98.010239 33.052448 C 98.50385 32.517607 98.941891 31.796961 99.320058 30.890194 C 99.698225 29.983428 100.026266 28.934523 100.299561 27.747468 C 100.568552 26.560097 100.802608 25.318238 100.988502 24.025245 C 101.1787 22.732569 101.331116 21.424136 101.449737 20.104565 C 101.564054 18.784679 101.650845 17.544976 101.706121 16.380836 C 101.765385 15.221317 101.807502 14.177357 101.832156 13.253261 C 101.85681 12.329165 101.870584 11.611949 101.869177 11.101298 C 101.867395 10.77234 101.860993 10.447369 101.845036 10.134676 C 101.829079 9.821982 101.800844 9.499733 101.768622 9.172864 C 102.843654 9.204285 103.906093 9.230453 104.960557 9.247382 C 106.015337 9.260008 107.079041 9.268963 108.151984 9.269943 C 108.978367 9.270108 109.805066 9.26597 110.636384 9.257844 C 111.472006 9.250035 112.30921 9.220709 113.147995 9.169866 Z M 137.214253 10.211838 L 136.326099 20.647397 C 135.846771 20.51698 135.377506 20.426243 134.914001 20.374869 C 134.454483 20.328114 133.984777 20.302245 133.504566 20.301563 C 132.336315 20.302231 131.217874 20.44934 130.15323 20.74751 C 129.088587 21.04568 128.150898 21.500288 127.331875 22.106398 C 126.516839 22.717128 125.867173 23.491446 125.379206 24.420429 C 124.890922 25.353716 124.65009 26.452297 124.64747 27.724146 C 124.648954 28.645837 124.784409 29.451901 125.058772 30.134048 C 125.328516 30.820181 125.715017 31.389423 126.218278 31.841773 C 126.721538 32.294123 127.332317 32.637556 128.050931 32.867767 C 128.769545 33.097978 129.565554 33.217058 130.439591 33.216399 C 131.049853 33.213659 131.673151 33.151304 132.31809 33.029966 C 132.959042 32.904009 133.603158 32.735017 134.246132 32.522675 C 134.889423 32.306029 135.508792 32.061665 136.100566 31.78066 C 136.696645 31.499971 137.246334 31.202892 137.758241 30.890056 L 137.362295 42.517014 C 136.719387 42.846182 136.027369 43.137126 135.285923 43.394151 C 134.544477 43.651176 133.779741 43.871875 133.000006 44.061186 C 132.215967 44.25018 131.430788 44.395823 130.649087 44.494129 C 129.863084 44.592119 129.119607 44.641314 128.410049 44.641082 C 126.069244 44.642101 123.93809 44.204229 122.016272 43.331769 C 120.094454 42.459309 118.442918 41.264907 117.06964 39.757803 C 115.692059 38.250382 114.622417 36.497342 113.864703 34.5033 C 113.107305 32.504955 112.727085 30.378572 112.724359 28.119848 C 112.728392 25.415973 113.108663 22.891185 113.877765 20.550736 C 114.642564 18.209971 115.774112 16.177395 117.263802 14.452376 C 118.757795 12.727674 120.605186 11.37508 122.805975 10.394595 C 125.006764 9.414109 127.53488 8.924963 130.386337 8.922536 C 131.524147 8.923957 132.681453 9.013345 133.84933 9.19437 C 135.02151 9.375711 136.143256 9.713433 137.214253 10.211838 Z M 168.976119 12.040092 L 158.042475 25.051547 L 168.084186 42.070881 L 156.607793 44.100286 L 149.088659 33.907804 L 148.691769 43.604997 L 138.399906 43.999447 L 139.194725 8.579138 L 150.721573 9.218673 L 149.829615 19.411659 L 157.001836 9.070207 Z M 168.976119 12.040092 " stroke="#19191b" stroke-width="2.786674" stroke-opacity="1" stroke-miterlimit="4"/><g fill="#f8e505" fill-opacity="1"><g transform="translate(81.464192, 157.708685)"><g><path d="M 18.859375 -13.5625 L 18.65625 -4.078125 L 0.890625 -1.359375 C 0.609375 -6.285156 0.335938 -11.195312 0.078125 -16.09375 C -0.171875 -21 -0.398438 -25.925781 -0.609375 -30.875 L 10.4375 -31.6875 C 10.34375 -28.550781 10.257812 -25.425781 10.1875 -22.3125 C 10.113281 -19.195312 10.128906 -16.066406 10.234375 -12.921875 C 10.898438 -12.941406 11.5625 -12.972656 12.21875 -13.015625 C 12.875 -13.066406 13.53125 -13.117188 14.1875 -13.171875 C 14.976562 -13.234375 15.753906 -13.296875 16.515625 -13.359375 C 17.285156 -13.429688 18.066406 -13.5 18.859375 -13.5625 Z M 18.859375 -13.5625 "/></g></g></g><g fill="#f8e505" fill-opacity="1"><g transform="translate(100.259289, 156.327258)"><g><path d="M 10.34375 -30.828125 L 10.140625 -1.734375 L 1.21875 -0.609375 L -0.90625 -29.40625 Z M 10.34375 -30.828125 "/></g></g></g><g fill="#f8e505" fill-opacity="1"><g transform="translate(112.32237, 155.44063)"><g><path d="M 22 -12.96875 C 22.144531 -11.03125 21.929688 -9.3125 21.359375 -7.8125 C 20.796875 -6.3125 19.96875 -5.035156 18.875 -3.984375 C 17.78125 -2.941406 16.460938 -2.117188 14.921875 -1.515625 C 13.390625 -0.921875 11.722656 -0.5625 9.921875 -0.4375 C 9.234375 -0.382812 8.46875 -0.414062 7.625 -0.53125 C 6.789062 -0.65625 5.9375 -0.828125 5.0625 -1.046875 C 4.195312 -1.265625 3.359375 -1.503906 2.546875 -1.765625 C 1.734375 -2.023438 1.015625 -2.273438 0.390625 -2.515625 L 0.6875 -11.328125 C 1.9375 -10.691406 3.3125 -10.238281 4.8125 -9.96875 C 6.3125 -9.695312 7.765625 -9.613281 9.171875 -9.71875 C 9.441406 -9.738281 9.765625 -9.773438 10.140625 -9.828125 C 10.515625 -9.878906 10.875 -9.96875 11.21875 -10.09375 C 11.5625 -10.21875 11.847656 -10.394531 12.078125 -10.625 C 12.304688 -10.863281 12.40625 -11.179688 12.375 -11.578125 C 12.351562 -11.847656 12.25 -12.070312 12.0625 -12.25 C 11.875 -12.425781 11.640625 -12.566406 11.359375 -12.671875 C 11.085938 -12.773438 10.78125 -12.847656 10.4375 -12.890625 C 10.09375 -12.929688 9.753906 -12.953125 9.421875 -12.953125 C 9.085938 -12.953125 8.773438 -12.941406 8.484375 -12.921875 C 8.203125 -12.898438 7.976562 -12.882812 7.8125 -12.875 C 6.601562 -12.78125 5.484375 -12.910156 4.453125 -13.265625 C 3.421875 -13.617188 2.519531 -14.144531 1.75 -14.84375 C 0.988281 -15.550781 0.375 -16.410156 -0.09375 -17.421875 C -0.570312 -18.441406 -0.851562 -19.554688 -0.9375 -20.765625 C -1.0625 -22.441406 -0.835938 -23.960938 -0.265625 -25.328125 C 0.304688 -26.703125 1.117188 -27.894531 2.171875 -28.90625 C 3.234375 -29.914062 4.472656 -30.722656 5.890625 -31.328125 C 7.316406 -31.941406 8.8125 -32.304688 10.375 -32.421875 C 11.0625 -32.460938 11.773438 -32.484375 12.515625 -32.484375 C 13.253906 -32.492188 13.988281 -32.460938 14.71875 -32.390625 C 15.457031 -32.316406 16.179688 -32.203125 16.890625 -32.046875 C 17.597656 -31.898438 18.273438 -31.703125 18.921875 -31.453125 L 18.75 -22.78125 C 17.78125 -23.03125 16.753906 -23.222656 15.671875 -23.359375 C 14.597656 -23.503906 13.566406 -23.539062 12.578125 -23.46875 C 12.390625 -23.457031 12.148438 -23.4375 11.859375 -23.40625 C 11.566406 -23.375 11.257812 -23.328125 10.9375 -23.265625 C 10.625 -23.210938 10.304688 -23.132812 9.984375 -23.03125 C 9.660156 -22.9375 9.375 -22.820312 9.125 -22.6875 C 8.882812 -22.550781 8.691406 -22.378906 8.546875 -22.171875 C 8.410156 -21.960938 8.359375 -21.722656 8.390625 -21.453125 C 8.429688 -21.140625 8.566406 -20.894531 8.796875 -20.71875 C 9.023438 -20.550781 9.316406 -20.425781 9.671875 -20.34375 C 10.035156 -20.269531 10.425781 -20.226562 10.84375 -20.21875 C 11.257812 -20.207031 11.675781 -20.207031 12.09375 -20.21875 C 12.507812 -20.238281 12.890625 -20.265625 13.234375 -20.296875 C 13.578125 -20.335938 13.867188 -20.351562 14.109375 -20.34375 C 15.242188 -20.351562 16.28125 -20.1875 17.21875 -19.84375 C 18.164062 -19.5 18.976562 -19.007812 19.65625 -18.375 C 20.332031 -17.738281 20.867188 -16.960938 21.265625 -16.046875 C 21.671875 -15.128906 21.914062 -14.101562 22 -12.96875 Z M 22 -12.96875 "/></g></g></g><g fill="#f8e505" fill-opacity="1"><g transform="translate(134.536567, 153.807902)"><g><path d="M 21.296875 -32.109375 L 21.75 -23.078125 L 15.4375 -22.359375 L 15.296875 -2.109375 L 6.390625 -0.984375 L 4.9375 -21.109375 L -1.359375 -20.3125 L -1.84375 -30.359375 Z M 21.296875 -32.109375 "/></g></g></g><g fill="#f8e505" fill-opacity="1"><g transform="translate(157.28168, 152.136152)"><g><path d="M 18.9375 -32.1875 C 18.945312 -30.84375 18.960938 -29.515625 18.984375 -28.203125 C 19.015625 -26.898438 19.019531 -25.578125 19 -24.234375 L 10.046875 -23.109375 L 10.03125 -20.421875 L 16.359375 -20.890625 L 16.375 -14.265625 L 10.015625 -13.59375 L 10.03125 -10.46875 L 15.296875 -10.84375 L 19.03125 -11.125 C 19.0625 -9.570312 19.085938 -8.023438 19.109375 -6.484375 C 19.140625 -4.941406 19.175781 -3.394531 19.21875 -1.84375 L 0.9375 -0.0625 L -0.625 -30.75 Z M 18.9375 -32.1875 "/></g></g></g><g fill="#f8e505" fill-opacity="1"><g transform="translate(177.244792, 150.668877)"><g><path d="M 24.46875 -22.375 C 24.550781 -21.269531 24.53125 -20.257812 24.40625 -19.34375 C 24.28125 -18.425781 24.039062 -17.582031 23.6875 -16.8125 C 23.332031 -16.039062 22.847656 -15.304688 22.234375 -14.609375 C 21.628906 -13.921875 20.890625 -13.253906 20.015625 -12.609375 L 25.734375 -4 L 16.3125 -1.421875 L 12.375 -10.203125 L 9.75 -9.9375 L 10.015625 -1.078125 L 0.890625 -0.40625 C 0.722656 -3.644531 0.550781 -6.863281 0.375 -10.0625 C 0.207031 -13.269531 0.0507812 -16.488281 -0.09375 -19.71875 C -0.1875 -21.351562 -0.273438 -22.96875 -0.359375 -24.5625 C -0.453125 -26.164062 -0.519531 -27.785156 -0.5625 -29.421875 C 0.40625 -29.867188 1.359375 -30.242188 2.296875 -30.546875 C 3.242188 -30.859375 4.195312 -31.117188 5.15625 -31.328125 C 6.113281 -31.535156 7.09375 -31.703125 8.09375 -31.828125 C 9.09375 -31.953125 10.117188 -32.050781 11.171875 -32.125 C 12.773438 -32.25 14.34375 -32.140625 15.875 -31.796875 C 17.414062 -31.460938 18.800781 -30.890625 20.03125 -30.078125 C 21.257812 -29.265625 22.269531 -28.21875 23.0625 -26.9375 C 23.863281 -25.664062 24.332031 -24.144531 24.46875 -22.375 Z M 15 -21 C 14.957031 -21.582031 14.835938 -22.117188 14.640625 -22.609375 C 14.441406 -23.097656 14.164062 -23.507812 13.8125 -23.84375 C 13.46875 -24.1875 13.050781 -24.441406 12.5625 -24.609375 C 12.082031 -24.785156 11.523438 -24.847656 10.890625 -24.796875 C 10.609375 -24.773438 10.332031 -24.738281 10.0625 -24.6875 C 9.789062 -24.632812 9.53125 -24.5625 9.28125 -24.46875 L 9.515625 -16.53125 L 10.03125 -16.578125 C 10.644531 -16.617188 11.257812 -16.738281 11.875 -16.9375 C 12.5 -17.144531 13.046875 -17.429688 13.515625 -17.796875 C 13.992188 -18.160156 14.375 -18.609375 14.65625 -19.140625 C 14.9375 -19.671875 15.050781 -20.289062 15 -21 Z M 15 -21 "/></g></g></g><path stroke-linecap="butt" transform="matrix(0.858584, -0.0631053, 0.0631053, 0.858584, 44.572259, 122.43844)" fill="none" stroke-linejoin="miter" d="M 62.737038 29.901495 L 61.70223 40.885618 L 40.87238 42.51664 C 40.972493 36.759602 41.083522 31.039762 41.206131 25.348072 C 41.328406 19.660907 41.480827 13.935011 41.662394 8.18396 L 54.52883 8.183308 C 54.145096 11.794818 53.784653 15.39894 53.437786 19.00406 C 53.090919 22.60918 52.8468 26.240051 52.696048 29.900532 C 53.47152 29.93478 54.239271 29.950263 54.994445 29.951172 C 55.754477 29.947888 56.523226 29.949795 57.296833 29.947509 C 58.220105 29.951674 59.126273 29.940933 60.019198 29.924669 C 60.907598 29.908072 61.813434 29.901856 62.737038 29.901495 Z M 76.244565 9.169747 L 73.522676 42.859976 L 63.086481 43.407769 L 63.086075 9.863227 Z M 102.268031 30.84155 C 102.265969 33.098021 101.874932 35.075673 101.091061 36.765121 C 100.307189 38.45457 99.234895 39.858941 97.873846 40.982758 C 96.517654 42.102383 94.922485 42.945114 93.102245 43.507423 C 91.277813 44.064874 89.323673 44.344363 87.226249 44.344891 C 86.420966 44.344849 85.532495 44.2386 84.569889 44.02681 C 83.603089 43.810163 82.626373 43.54274 81.635547 43.219685 C 80.648914 42.901487 79.696285 42.553941 78.777329 42.181573 C 77.862897 41.809537 77.051547 41.458726 76.343279 41.12914 L 77.433344 30.940717 C 78.832051 31.780563 80.386672 32.418035 82.092347 32.857327 C 83.802881 33.292425 85.479269 33.511181 87.126371 33.509402 C 87.440272 33.509725 87.818524 33.501129 88.266317 33.474896 C 88.709585 33.448331 89.138078 33.375183 89.538554 33.24993 C 89.943221 33.129534 90.284668 32.940797 90.56642 32.697627 C 90.848505 32.449931 90.988575 32.091705 90.985966 31.631999 C 90.986289 31.318098 90.887592 31.051514 90.690208 30.827723 C 90.492823 30.603931 90.237477 30.425926 89.924836 30.284657 C 89.612194 30.143387 89.256165 30.035326 88.861274 29.960805 C 88.461858 29.885952 88.074354 29.834722 87.699095 29.802591 C 87.319311 29.770128 86.961155 29.752903 86.633678 29.751582 C 86.301676 29.749928 86.037552 29.753263 85.84197 29.752537 C 84.422459 29.752846 83.135036 29.503533 81.970318 29.00846 C 80.810125 28.513718 79.809706 27.825986 78.97811 26.945929 C 78.146847 26.061347 77.495987 25.012588 77.034249 23.804842 C 76.572843 22.592572 76.342152 21.274419 76.341511 19.859433 C 76.343582 17.912338 76.735757 16.166802 77.517703 14.62735 C 78.299982 13.083373 79.34719 11.772701 80.659662 10.69081 C 81.9718 9.613443 83.475136 8.782162 85.173527 8.206347 C 86.871919 7.630533 88.626618 7.340935 90.441817 7.342411 C 91.251626 7.342786 92.082397 7.36745 92.942517 7.426119 C 93.798112 7.484455 94.650381 7.588043 95.499324 7.736883 C 96.352791 7.886055 97.18064 8.074292 97.987062 8.306449 C 98.793816 8.534082 99.563905 8.827264 100.289276 9.171756 L 99.346275 19.216301 C 98.227877 18.833823 97.050188 18.515232 95.822258 18.261193 C 94.594328 18.007153 93.393619 17.877955 92.224324 17.878456 C 92.010642 17.8764 91.732609 17.883262 91.395416 17.890326 C 91.058224 17.89739 90.701267 17.92575 90.329737 17.966688 C 89.958207 18.007625 89.585347 18.066663 89.205966 18.15252 C 88.826918 18.233852 88.4866 18.345328 88.189872 18.482756 C 87.892811 18.624709 87.656109 18.812046 87.475575 19.039908 C 87.294707 19.272295 87.211066 19.543675 87.228843 19.858907 C 87.243295 20.219391 87.381056 20.511594 87.633075 20.734851 C 87.88962 20.958441 88.222559 21.13305 88.623175 21.253488 C 89.027983 21.378784 89.471987 21.466013 89.95971 21.51551 C 90.447433 21.565006 90.927769 21.591211 91.409436 21.599315 C 91.886244 21.611612 92.332374 21.608005 92.742303 21.601738 C 93.157089 21.591277 93.492619 21.606839 93.758608 21.640038 C 95.07677 21.718724 96.266171 22.001778 97.318424 22.479487 C 98.375203 22.957528 99.270343 23.592025 100.003847 24.382979 C 100.73735 25.173933 101.29564 26.120346 101.683574 27.218025 C 102.071841 28.311178 102.26493 29.521926 102.268031 30.84155 Z M 128.955718 8.626278 L 128.708145 19.113205 L 121.338422 19.41322 L 119.455848 42.860197 L 109.019653 43.407991 L 109.068927 19.958207 L 101.696745 20.353583 L 101.995257 8.678393 Z M 152.72658 8.33063 C 152.626407 9.879245 152.536282 11.41495 152.452013 12.932886 C 152.372601 14.44663 152.264375 15.981004 152.132193 17.531816 L 141.646221 18.075951 L 141.39896 21.192481 L 148.769357 21.192793 L 148.224036 28.859806 L 140.803336 29.110577 L 140.556356 32.718489 L 146.689248 32.718838 L 151.043143 32.720371 C 150.946305 34.533111 150.841082 36.336135 150.736856 38.125583 C 150.628106 39.914698 150.532598 41.709337 150.450666 43.504973 L 129.126605 43.998658 L 129.919374 8.328585 Z M 181.544054 20.153082 C 181.544958 21.440697 181.431996 22.606202 181.209362 23.654455 C 180.986727 24.702708 180.633991 25.664054 180.156011 26.534302 C 179.682224 27.409407 179.063096 28.219234 178.303486 28.959591 C 177.543543 29.704473 176.627214 30.410562 175.558358 31.087243 L 181.443678 41.574519 L 170.314246 43.754728 L 166.502858 33.21515 L 163.438312 33.312933 L 162.991359 43.60322 L 152.354242 43.603938 C 152.435051 39.842774 152.514528 36.09971 152.588151 32.374415 C 152.662106 28.644594 152.750634 24.902195 152.849543 21.142361 C 152.884157 19.247705 152.913249 17.366291 152.95006 15.503643 C 152.982346 13.640663 153.047639 11.76191 153.146271 9.862859 C 154.301578 9.433664 155.437655 9.080399 156.559361 8.798872 C 157.680734 8.521871 158.807166 8.299837 159.937659 8.146346 C 161.06396 7.987997 162.213754 7.881421 163.373797 7.821095 C 164.538032 7.765627 165.727756 7.73478 166.946828 7.737937 C 168.83057 7.735352 170.644912 7.996095 172.403761 8.516639 C 174.158085 9.036849 175.71597 9.815601 177.068366 10.852227 C 178.42043 11.893379 179.503652 13.187749 180.318032 14.735339 C 181.136605 16.287786 181.54539 18.092192 181.544054 20.153082 Z M 170.462096 20.944589 C 170.462874 20.253101 170.368491 19.618313 170.178948 19.040226 C 169.989406 18.462139 169.707565 17.963712 169.337951 17.545276 C 168.964145 17.121983 168.501567 16.792257 167.95022 16.556098 C 167.399204 16.315415 166.752898 16.195118 166.011299 16.195206 C 165.678965 16.198078 165.359207 16.215523 165.042312 16.255926 C 164.72961 16.301187 164.42496 16.360689 164.127698 16.443483 L 163.733417 25.645727 L 164.325019 25.643713 C 165.034608 25.645821 165.755707 25.553233 166.492176 25.375331 C 167.224452 25.192572 167.886452 24.913654 168.469457 24.533388 C 169.056988 24.153454 169.534181 23.665319 169.905229 23.073839 C 170.276609 22.477834 170.460723 21.767973 170.462096 20.944589 Z M 170.462096 20.944589 " stroke="#19191b" stroke-width="2.786674" stroke-opacity="1" stroke-miterlimit="4"/><g fill="#f8e505" fill-opacity="1"><g transform="translate(87.899493, 168.400392)"><g><path d="M 2.597656 0 L 2.597656 -3.375 L 6.328125 -3.375 L 6.328125 -4.703125 L 2.597656 -4.703125 L 2.597656 -7.1875 L 6.917969 -7.1875 L 6.917969 -8.597656 L 1.023438 -8.597656 L 1.023438 0 Z M 2.597656 0 "/></g></g></g><g fill="#f8e505" fill-opacity="1"><g transform="translate(98.213161, 168.400392)"><g><path d="M 5.050781 0.183594 C 7.613281 0.183594 9.691406 -1.816406 9.691406 -4.3125 C 9.691406 -6.808594 7.613281 -8.800781 5.050781 -8.800781 C 2.492188 -8.800781 0.417969 -6.808594 0.417969 -4.3125 C 0.417969 -1.816406 2.492188 0.183594 5.050781 0.183594 Z M 5.050781 -1.265625 C 3.363281 -1.265625 1.992188 -2.5625 1.992188 -4.304688 C 1.992188 -6.058594 3.355469 -7.359375 5.050781 -7.359375 C 6.753906 -7.359375 8.125 -6.0625 8.125 -4.304688 C 8.125 -2.5625 6.753906 -1.265625 5.050781 -1.265625 Z M 5.050781 -1.265625 "/></g></g></g><g fill="#f8e505" fill-opacity="1"><g transform="translate(111.3528, 168.400392)"><g><path d="M 2.597656 0 L 2.597656 -3.046875 L 4.070312 -3.046875 C 4.1875 -3.046875 4.292969 -3.046875 4.40625 -3.054688 L 6.109375 0 L 7.917969 0 L 5.96875 -3.292969 C 7.023438 -3.660156 7.71875 -4.585938 7.71875 -5.796875 C 7.71875 -7.472656 6.472656 -8.597656 4.734375 -8.597656 L 1.023438 -8.597656 L 1.023438 0 Z M 2.597656 -7.195312 L 4.671875 -7.195312 C 5.507812 -7.195312 6.144531 -6.582031 6.144531 -5.796875 C 6.144531 -4.957031 5.511719 -4.382812 4.679688 -4.375 L 2.597656 -4.375 Z M 2.597656 -7.195312 "/></g></g></g><g fill="#f8e505" fill-opacity="1"><g transform="translate(122.570529, 168.400392)"><g/></g></g><g fill="#f8e505" fill-opacity="1"><g transform="translate(128.755891, 168.400392)"><g><path d="M 1.613281 0 C 3.414062 0 4.734375 -1.070312 4.734375 -2.933594 L 4.734375 -8.597656 L 3.175781 -8.597656 L 3.175781 -3.023438 C 3.175781 -2.03125 2.554688 -1.410156 1.617188 -1.410156 L 0.246094 -1.410156 L 0.246094 0 Z M 1.613281 0 "/></g></g></g><g fill="#f8e505" fill-opacity="1"><g transform="translate(137.387888, 168.400392)"><g><path d="M 6.972656 0 L 6.972656 -1.410156 L 2.597656 -1.410156 L 2.597656 -3.707031 L 6.328125 -3.707031 L 6.328125 -5.03125 L 2.597656 -5.03125 L 2.597656 -7.1875 L 6.917969 -7.1875 L 6.917969 -8.597656 L 1.023438 -8.597656 L 1.023438 0 Z M 6.972656 0 "/></g></g></g><g fill="#f8e505" fill-opacity="1"><g transform="translate(147.80271, 168.400392)"><g><path d="M 6.972656 0 L 6.972656 -1.410156 L 2.597656 -1.410156 L 2.597656 -3.707031 L 6.328125 -3.707031 L 6.328125 -5.03125 L 2.597656 -5.03125 L 2.597656 -7.1875 L 6.917969 -7.1875 L 6.917969 -8.597656 L 1.023438 -8.597656 L 1.023438 0 Z M 6.972656 0 "/></g></g></g><g fill="#f8e505" fill-opacity="1"><g transform="translate(158.217531, 168.400392)"><g><path d="M 2.597656 0 L 2.597656 -2.742188 L 4.671875 -2.742188 C 6.398438 -2.742188 7.632812 -3.933594 7.632812 -5.703125 C 7.632812 -7.378906 6.386719 -8.597656 4.648438 -8.597656 L 1.023438 -8.597656 L 1.023438 0 Z M 2.597656 -7.195312 L 4.585938 -7.195312 C 5.417969 -7.195312 6.058594 -6.488281 6.058594 -5.703125 C 6.058594 -4.816406 5.417969 -4.148438 4.597656 -4.148438 L 2.597656 -4.148438 Z M 2.597656 -7.195312 "/></g></g></g><g fill="#f8e505" fill-opacity="1"><g transform="translate(101.781094, 186.333227)"><g><path d="M 2.597656 0 L 2.597656 -2.742188 L 4.671875 -2.742188 C 6.398438 -2.742188 7.632812 -3.933594 7.632812 -5.703125 C 7.632812 -7.378906 6.386719 -8.597656 4.648438 -8.597656 L 1.023438 -8.597656 L 1.023438 0 Z M 2.597656 -7.195312 L 4.585938 -7.195312 C 5.417969 -7.195312 6.058594 -6.488281 6.058594 -5.703125 C 6.058594 -4.816406 5.417969 -4.148438 4.597656 -4.148438 L 2.597656 -4.148438 Z M 2.597656 -7.195312 "/></g></g></g><g fill="#f8e505" fill-opacity="1"><g transform="translate(112.63846, 186.333227)"><g><path d="M 6.972656 0 L 6.972656 -1.410156 L 2.597656 -1.410156 L 2.597656 -3.707031 L 6.328125 -3.707031 L 6.328125 -5.03125 L 2.597656 -5.03125 L 2.597656 -7.1875 L 6.917969 -7.1875 L 6.917969 -8.597656 L 1.023438 -8.597656 L 1.023438 0 Z M 6.972656 0 "/></g></g></g><g fill="#f8e505" fill-opacity="1"><g transform="translate(123.053282, 186.333227)"><g><path d="M 6.972656 0 L 6.972656 -1.410156 L 2.597656 -1.410156 L 2.597656 -3.707031 L 6.328125 -3.707031 L 6.328125 -5.03125 L 2.597656 -5.03125 L 2.597656 -7.1875 L 6.917969 -7.1875 L 6.917969 -8.597656 L 1.023438 -8.597656 L 1.023438 0 Z M 6.972656 0 "/></g></g></g><g fill="#f8e505" fill-opacity="1"><g transform="translate(133.468103, 186.333227)"><g><path d="M 2.597656 0 L 2.597656 -2.742188 L 4.671875 -2.742188 C 6.398438 -2.742188 7.632812 -3.933594 7.632812 -5.703125 C 7.632812 -7.378906 6.386719 -8.597656 4.648438 -8.597656 L 1.023438 -8.597656 L 1.023438 0 Z M 2.597656 -7.195312 L 4.585938 -7.195312 C 5.417969 -7.195312 6.058594 -6.488281 6.058594 -5.703125 C 6.058594 -4.816406 5.417969 -4.148438 4.597656 -4.148438 L 2.597656 -4.148438 Z M 2.597656 -7.195312 "/></g></g></g><g fill="#f8e505" fill-opacity="1"><g transform="translate(144.325469, 186.333227)"><g><path d="M 3.925781 0.195312 C 6.050781 0.195312 7.429688 -0.738281 7.429688 -2.410156 C 7.429688 -4.128906 5.960938 -4.753906 4.382812 -5.046875 C 2.941406 -5.28125 2.226562 -5.609375 2.226562 -6.328125 C 2.226562 -6.871094 2.546875 -7.421875 3.851562 -7.421875 C 5.019531 -7.421875 5.53125 -6.886719 5.53125 -6.222656 L 7.105469 -6.222656 C 7.105469 -7.765625 6.011719 -8.800781 3.871094 -8.800781 C 1.636719 -8.800781 0.652344 -7.734375 0.652344 -6.335938 C 0.652344 -4.550781 2.414062 -4.035156 3.855469 -3.738281 C 5.050781 -3.507812 5.835938 -3.210938 5.835938 -2.414062 C 5.835938 -1.5625 5.210938 -1.132812 3.921875 -1.132812 C 2.707031 -1.132812 2.003906 -1.777344 2.003906 -2.578125 L 0.429688 -2.578125 C 0.429688 -1.234375 1.441406 0.195312 3.925781 0.195312 Z M 3.925781 0.195312 "/></g></g></g></svg>