<svg xmlns="http://www.w3.org/2000/svg" xmlns:xlink="http://www.w3.org/1999/xlink" width="500" zoomAndPan="magnify" viewBox="0 0 375 374.999991" height="500" preserveAspectRatio="xMidYMid meet" version="1.0"><defs><g/><clipPath id="127e27d9bc"><path d="M 124 74.410156 L 221 74.410156 L 221 193 L 124 193 Z M 124 74.410156 " clip-rule="nonzero"/></clipPath><clipPath id="abde9189cb"><path d="M 138.347656 92.824219 L 221.957031 92.824219 L 221.957031 182.535156 L 138.347656 182.535156 Z M 138.347656 92.824219 " clip-rule="nonzero"/></clipPath><clipPath id="ec26f9170e"><path d="M 108 216 L 259 216 L 259 275 L 108 275 Z M 108 216 " clip-rule="nonzero"/></clipPath><clipPath id="c485aa5db7"><path d="M 108.289062 226.046875 L 255.027344 216.492188 L 258.179688 264.910156 L 111.441406 274.464844 Z M 108.289062 226.046875 " clip-rule="nonzero"/></clipPath><clipPath id="742eb0f44d"><path d="M 108.289062 226.046875 L 255.027344 216.492188 L 258.179688 264.910156 L 111.441406 274.464844 Z M 108.289062 226.046875 " clip-rule="nonzero"/></clipPath></defs><g clip-path="url(#127e27d9bc)"><path fill="#f8e505" d="M 217.726562 179.558594 C 214.628906 183.289062 207.574219 185.777344 203.300781 187.527344 C 184.96875 195.027344 164.816406 193.414062 146.597656 186.335938 C 136.945312 182.585938 130.246094 179.375 126.851562 170.070312 C 121.9375 156.585938 125.960938 141.605469 132.136719 129.230469 C 133.378906 126.734375 135.039062 123.746094 136.359375 121.644531 C 140.589844 114.914062 143.195312 114.011719 148.480469 120.441406 C 151.042969 123.558594 161.664062 137.292969 167.398438 133.683594 C 171.195312 131.292969 157.550781 119.851562 156.109375 117.09375 C 151.371094 108.039062 148.859375 97.980469 152.625 94.003906 C 159.496094 86.742188 162.816406 82.332031 173.722656 78.21875 C 172.832031 77.503906 170.632812 75.921875 171.375 74.410156 C 188.296875 75.332031 198.789062 76.078125 206.070312 93.308594 C 206.070312 93.308594 208.980469 102.003906 208.382812 105.011719 C 207.785156 108.019531 202.464844 119.828125 202.464844 119.828125 C 195.878906 135.554688 218.769531 143.03125 220.699219 158.988281 C 220.828125 164.675781 221.730469 174.742188 217.726562 179.558594 " fill-opacity="1" fill-rule="nonzero"/></g><path fill="#ffffff" d="M 192.171875 92.125 C 191.707031 92.625 190.746094 92.484375 190.023438 91.808594 C 189.300781 91.136719 189.089844 90.1875 189.554688 89.691406 C 190.019531 89.191406 190.980469 89.332031 191.703125 90.003906 C 192.425781 90.679688 192.632812 91.628906 192.171875 92.125 " fill-opacity="1" fill-rule="nonzero"/><g clip-path="url(#abde9189cb)"><path fill="#f47b06" d="M 161.261719 179.617188 C 158.972656 178.808594 156.433594 177.582031 154.839844 175.695312 C 154.183594 174.917969 153.617188 174.109375 153.382812 173.097656 C 153.265625 172.574219 153.773438 170.25 153.617188 170.035156 C 152.878906 169.027344 148.421875 168.6875 147.019531 167.894531 C 144.8125 166.640625 142.980469 164.644531 142.511719 162.078125 C 142.050781 159.558594 142.914062 157.144531 144.78125 155.386719 C 147.234375 153.078125 147.367188 154.203125 145.71875 151.046875 C 144.585938 148.878906 143.53125 146.394531 143.351562 143.921875 C 143.277344 142.894531 143.671875 138.085938 144.960938 138.007812 C 141.042969 138.246094 139.214844 141.28125 139.328125 144.863281 C 139.429688 148.179688 142.582031 151.183594 142.6875 154.054688 C 142.757812 155.953125 142.644531 154.949219 140.789062 156.695312 C 139.8125 157.613281 139.023438 158.765625 138.640625 160.054688 C 137.519531 163.820312 139.820312 167.382812 143.027344 169.199219 C 144.597656 170.09375 146.703125 170.0625 148.167969 170.914062 C 150.453125 172.242188 148.796875 170.964844 149.246094 173.835938 C 149.714844 176.828125 152.574219 178.753906 155.082031 180 C 162.9375 183.910156 172.570312 182.75 180.46875 179.582031 C 174.128906 181.351562 167.566406 181.851562 161.261719 179.617188 Z M 221.855469 98.539062 C 221.519531 100.867188 220.628906 103.308594 218.902344 105.007812 C 218.550781 105.351562 215.628906 107.089844 215.988281 107.222656 C 222.015625 109.46875 218.582031 112.167969 214.152344 113.617188 C 210.878906 114.6875 207.265625 115.285156 204.539062 117.554688 C 202.019531 119.652344 202.453125 119.996094 198.816406 119.152344 C 195.921875 118.484375 193.0625 117.480469 190.5625 115.851562 C 186.761719 113.378906 181.933594 107.644531 184.378906 102.6875 C 186.601562 98.183594 193.847656 102.984375 197.519531 99.199219 C 199.316406 97.347656 199.988281 93.902344 202.796875 93.054688 C 204.738281 92.46875 207.542969 93.695312 209.5625 93.835938 C 213.664062 94.121094 223.039062 90.371094 221.855469 98.539062 " fill-opacity="1" fill-rule="nonzero"/></g><path fill="#110f0d" d="M 185.84375 160.363281 C 185.777344 160.683594 185.492188 160.90625 185.175781 160.90625 C 185.128906 160.90625 185.085938 160.902344 185.039062 160.894531 C 184.984375 160.882812 179.292969 159.753906 168.285156 159.601562 C 157.035156 159.445312 147.421875 154.546875 147.019531 154.335938 C 146.6875 154.164062 146.554688 153.753906 146.726562 153.417969 C 146.898438 153.085938 147.308594 152.953125 147.644531 153.128906 C 147.742188 153.175781 157.386719 158.085938 168.304688 158.238281 C 179.457031 158.394531 185.078125 159.511719 185.3125 159.558594 C 185.679688 159.636719 185.914062 159.996094 185.84375 160.363281 Z M 172.886719 171.152344 C 172.953125 171.523438 172.707031 171.878906 172.335938 171.945312 C 170.183594 172.332031 168.078125 172.484375 166.101562 172.484375 C 159.128906 172.484375 153.757812 170.589844 153.472656 170.488281 C 153.117188 170.359375 152.933594 169.96875 153.0625 169.617188 C 153.1875 169.261719 153.578125 169.078125 153.933594 169.207031 C 154.019531 169.238281 162.707031 172.292969 172.09375 170.605469 C 172.464844 170.539062 172.820312 170.785156 172.886719 171.152344 Z M 196.28125 157.800781 C 197.566406 162.105469 196.90625 167.25 194.597656 170.910156 C 194.46875 171.113281 194.246094 171.226562 194.019531 171.226562 C 193.898438 171.226562 193.769531 171.195312 193.660156 171.121094 C 193.339844 170.921875 193.246094 170.5 193.445312 170.183594 C 195.554688 166.839844 196.15625 162.132812 194.976562 158.191406 C 194.316406 155.976562 192.792969 153 189.300781 151.410156 C 183.890625 148.945312 180.351562 148.070312 175.449219 146.855469 C 173.652344 146.410156 171.617188 145.90625 169.25 145.265625 C 160.449219 142.878906 152.195312 137.863281 152.113281 137.8125 C 151.792969 137.617188 151.691406 137.199219 151.890625 136.878906 C 152.085938 136.554688 152.503906 136.453125 152.824219 136.652344 C 152.90625 136.699219 160.996094 141.617188 169.605469 143.953125 C 171.960938 144.589844 173.988281 145.089844 175.777344 145.535156 C 180.75 146.765625 184.339844 147.65625 189.867188 150.171875 C 193 151.597656 195.21875 154.234375 196.28125 157.800781 Z M 217.746094 103.730469 C 217.574219 103.839844 215.457031 105.160156 212.550781 106.539062 L 215.675781 106.429688 C 216.046875 106.40625 216.367188 106.710938 216.378906 107.085938 C 216.390625 107.460938 216.097656 107.777344 215.722656 107.789062 L 209.09375 108.019531 C 206.925781 108.84375 204.605469 109.515625 202.445312 109.710938 C 201.726562 109.777344 201.023438 109.808594 200.339844 109.808594 C 194.855469 109.808594 190.566406 107.882812 188.851562 106.972656 L 188.785156 106.9375 C 188.464844 106.789062 188.304688 106.414062 188.433594 106.078125 C 188.566406 105.726562 188.960938 105.550781 189.3125 105.683594 C 189.328125 105.691406 189.390625 105.71875 189.488281 105.769531 C 191.3125 106.734375 196.207031 108.914062 202.320312 108.355469 C 208.691406 107.773438 216.941406 102.628906 217.023438 102.578125 C 217.339844 102.378906 217.761719 102.472656 217.960938 102.792969 C 218.160156 103.109375 218.066406 103.53125 217.746094 103.730469 Z M 190.09375 90.191406 C 190.367188 89.898438 190.929688 89.980469 191.359375 90.375 C 191.78125 90.773438 191.90625 91.332031 191.632812 91.625 C 191.359375 91.917969 190.792969 91.835938 190.367188 91.441406 C 189.941406 91.042969 189.820312 90.484375 190.09375 90.191406 Z M 189.234375 95.679688 C 194.101562 98.40625 195.273438 92.457031 192.070312 89.71875 C 192.066406 89.722656 190.914062 89.003906 190.722656 88.949219 C 190.378906 88.847656 189.980469 88.792969 189.613281 88.78125 C 186.957031 88.4375 186.265625 94.015625 189.234375 95.679688 " fill-opacity="1" fill-rule="nonzero"/><g clip-path="url(#ec26f9170e)"><g clip-path="url(#c485aa5db7)"><g clip-path="url(#742eb0f44d)"><path fill="#19191b" d="M 108.289062 226.046875 L 255.027344 216.492188 L 258.179688 264.910156 L 111.441406 274.464844 Z M 108.289062 226.046875 " fill-opacity="1" fill-rule="nonzero"/></g></g></g><g fill="#f8e505" fill-opacity="1"><g transform="translate(120.929249, 206.977517)"><g><path d="M 25.21875 -19.75 C 25.375 -17.65625 25.25 -15.742188 24.84375 -14.015625 C 24.4375 -12.296875 23.796875 -10.75 22.921875 -9.375 C 22.046875 -8 20.976562 -6.789062 19.71875 -5.75 C 18.46875 -4.71875 17.070312 -3.84375 15.53125 -3.125 C 13.988281 -2.40625 12.332031 -1.832031 10.5625 -1.40625 C 8.800781 -0.976562 6.976562 -0.695312 5.09375 -0.5625 C 4.382812 -0.507812 3.695312 -0.476562 3.03125 -0.46875 C 2.363281 -0.457031 1.671875 -0.460938 0.953125 -0.484375 L -0.609375 -30.609375 C 0.984375 -31.253906 2.640625 -31.742188 4.359375 -32.078125 C 6.085938 -32.421875 7.8125 -32.65625 9.53125 -32.78125 C 11.664062 -32.9375 13.648438 -32.757812 15.484375 -32.25 C 17.328125 -31.75 18.945312 -30.941406 20.34375 -29.828125 C 21.738281 -28.710938 22.859375 -27.304688 23.703125 -25.609375 C 24.554688 -23.910156 25.0625 -21.957031 25.21875 -19.75 Z M 16.140625 -17.640625 C 16.097656 -18.453125 15.957031 -19.222656 15.71875 -19.953125 C 15.476562 -20.691406 15.125 -21.328125 14.65625 -21.859375 C 14.1875 -22.398438 13.609375 -22.820312 12.921875 -23.125 C 12.242188 -23.4375 11.453125 -23.570312 10.546875 -23.53125 L 10.65625 -9.5625 C 11.539062 -9.757812 12.328125 -10.113281 13.015625 -10.625 C 13.710938 -11.144531 14.300781 -11.753906 14.78125 -12.453125 C 15.269531 -13.160156 15.632812 -13.929688 15.875 -14.765625 C 16.113281 -15.597656 16.210938 -16.453125 16.171875 -17.328125 Z M 16.140625 -17.640625 "/></g></g></g><g fill="#f8e505" fill-opacity="1"><g transform="translate(146.751662, 205.079588)"><g><path d="M 25.546875 -33.609375 C 25.253906 -28.296875 25.0625 -23.019531 24.96875 -17.78125 C 24.875 -12.539062 24.804688 -7.269531 24.765625 -1.96875 L 15.625 -0.59375 L 15.765625 -4.078125 C 15.492188 -3.722656 15.171875 -3.398438 14.796875 -3.109375 C 14.421875 -2.828125 14.015625 -2.59375 13.578125 -2.40625 C 13.140625 -2.21875 12.679688 -2.070312 12.203125 -1.96875 C 11.722656 -1.863281 11.269531 -1.800781 10.84375 -1.78125 C 9.820312 -1.726562 8.847656 -1.859375 7.921875 -2.171875 C 7.003906 -2.492188 6.144531 -2.941406 5.34375 -3.515625 C 4.550781 -4.085938 3.828125 -4.773438 3.171875 -5.578125 C 2.515625 -6.390625 1.945312 -7.242188 1.46875 -8.140625 C 0.988281 -9.046875 0.601562 -9.976562 0.3125 -10.9375 C 0.0195312 -11.894531 -0.15625 -12.828125 -0.21875 -13.734375 C -0.320312 -15.078125 -0.398438 -16.472656 -0.453125 -17.921875 C -0.503906 -19.367188 -0.515625 -20.820312 -0.484375 -22.28125 C -0.460938 -23.738281 -0.394531 -25.179688 -0.28125 -26.609375 C -0.164062 -28.046875 0.0078125 -29.429688 0.25 -30.765625 C 2.070312 -30.804688 3.90625 -30.851562 5.75 -30.90625 C 7.59375 -30.96875 9.429688 -31.082031 11.265625 -31.25 C 11.003906 -29.925781 10.753906 -28.597656 10.515625 -27.265625 C 10.273438 -25.929688 10.066406 -24.585938 9.890625 -23.234375 C 9.722656 -21.890625 9.601562 -20.546875 9.53125 -19.203125 C 9.46875 -17.867188 9.484375 -16.53125 9.578125 -15.1875 C 9.609375 -14.863281 9.660156 -14.410156 9.734375 -13.828125 C 9.804688 -13.242188 9.925781 -12.671875 10.09375 -12.109375 C 10.257812 -11.554688 10.488281 -11.078125 10.78125 -10.671875 C 11.082031 -10.265625 11.472656 -10.078125 11.953125 -10.109375 C 12.523438 -10.148438 13.015625 -10.429688 13.421875 -10.953125 C 13.828125 -11.472656 14.171875 -12.160156 14.453125 -13.015625 C 14.734375 -13.867188 14.957031 -14.835938 15.125 -15.921875 C 15.289062 -17.015625 15.421875 -18.148438 15.515625 -19.328125 C 15.609375 -20.515625 15.660156 -21.710938 15.671875 -22.921875 C 15.691406 -24.128906 15.6875 -25.257812 15.65625 -26.3125 C 15.632812 -27.363281 15.601562 -28.3125 15.5625 -29.15625 C 15.519531 -30 15.484375 -30.648438 15.453125 -31.109375 C 15.429688 -31.410156 15.398438 -31.703125 15.359375 -31.984375 C 15.328125 -32.273438 15.285156 -32.566406 15.234375 -32.859375 C 16.210938 -32.890625 17.175781 -32.9375 18.125 -33 C 19.082031 -33.0625 20.046875 -33.128906 21.015625 -33.203125 C 21.765625 -33.253906 22.515625 -33.3125 23.265625 -33.375 C 24.023438 -33.4375 24.785156 -33.515625 25.546875 -33.609375 Z M 25.546875 -33.609375 "/></g></g></g><g fill="#f8e505" fill-opacity="1"><g transform="translate(173.89654, 203.084458)"><g><path d="M 20.28125 -32.28125 L 20.15625 -22.75 C 19.71875 -22.832031 19.289062 -22.878906 18.875 -22.890625 C 18.457031 -22.910156 18.03125 -22.90625 17.59375 -22.875 C 16.53125 -22.800781 15.523438 -22.59375 14.578125 -22.25 C 13.628906 -21.90625 12.804688 -21.429688 12.109375 -20.828125 C 11.421875 -20.234375 10.882812 -19.492188 10.5 -18.609375 C 10.125 -17.722656 9.976562 -16.707031 10.0625 -15.5625 C 10.125 -14.726562 10.296875 -14.007812 10.578125 -13.40625 C 10.867188 -12.8125 11.257812 -12.320312 11.75 -11.9375 C 12.238281 -11.550781 12.8125 -11.273438 13.46875 -11.109375 C 14.132812 -10.953125 14.867188 -10.90625 15.671875 -10.96875 C 16.222656 -11.007812 16.785156 -11.109375 17.359375 -11.265625 C 17.929688 -11.421875 18.5 -11.613281 19.0625 -11.84375 C 19.632812 -12.082031 20.179688 -12.347656 20.703125 -12.640625 C 21.222656 -12.941406 21.703125 -13.25 22.140625 -13.5625 L 22.5625 -3.015625 C 22 -2.671875 21.390625 -2.359375 20.734375 -2.078125 C 20.085938 -1.796875 19.410156 -1.539062 18.703125 -1.3125 C 18.003906 -1.09375 17.300781 -0.910156 16.59375 -0.765625 C 15.894531 -0.628906 15.226562 -0.535156 14.59375 -0.484375 C 12.46875 -0.328125 10.503906 -0.582031 8.703125 -1.25 C 6.910156 -1.914062 5.335938 -2.882812 3.984375 -4.15625 C 2.640625 -5.425781 1.554688 -6.941406 0.734375 -8.703125 C -0.078125 -10.460938 -0.5625 -12.375 -0.71875 -14.4375 C -0.894531 -16.875 -0.710938 -19.175781 -0.171875 -21.34375 C 0.359375 -23.519531 1.242188 -25.4375 2.484375 -27.09375 C 3.722656 -28.757812 5.304688 -30.109375 7.234375 -31.140625 C 9.160156 -32.179688 11.414062 -32.796875 14 -32.984375 C 15.03125 -33.054688 16.082031 -33.050781 17.15625 -32.96875 C 18.226562 -32.882812 19.269531 -32.65625 20.28125 -32.28125 Z M 20.28125 -32.28125 "/></g></g></g><g fill="#f8e505" fill-opacity="1"><g transform="translate(196.513653, 201.422116)"><g><path d="M 26.5625 -31.078125 L 17.515625 -18.546875 L 27.75 -3.796875 L 17.484375 -1.1875 L 10 -9.921875 L 10.28125 -1.125 L 0.984375 -0.078125 L -0.65625 -32.21875 L 9.84375 -32.40625 L 9.703125 -23.109375 L 15.515625 -32.96875 Z M 26.5625 -31.078125 "/></g></g></g><path stroke-linecap="butt" transform="matrix(0.906211, -0.0666059, 0.0666059, 0.906211, 69.148147, 170.694702)" fill="none" stroke-linejoin="miter" d="M 83.192163 24.357403 C 83.194754 26.668037 82.895205 28.749559 82.301777 30.606886 C 81.708664 32.459926 80.880433 34.110332 79.8174 35.553816 C 78.754368 36.997301 77.486544 38.236071 76.02219 39.275043 C 74.553548 40.313699 72.943166 41.169517 71.195961 41.834236 C 69.448441 42.503243 67.588561 43.000191 65.620925 43.321108 C 63.649002 43.64171 61.624112 43.803241 59.546571 43.801411 C 58.770748 43.800426 58.013335 43.783551 57.270675 43.741898 C 56.528015 43.700244 55.769781 43.635894 54.995658 43.553133 L 55.685496 10.356719 C 57.499284 9.783105 59.370011 9.373164 61.288471 9.134843 C 63.211218 8.896837 65.12117 8.774275 67.017696 8.775732 C 69.375492 8.776607 71.543582 9.129934 73.521652 9.84 C 75.499722 10.550066 77.209148 11.572298 78.641355 12.906065 C 80.07785 14.240147 81.194882 15.874039 81.992767 17.803453 C 82.794939 19.733182 83.194738 21.917832 83.192163 24.357403 Z M 73.053551 25.944218 C 73.067332 25.052951 72.97538 24.192708 72.768491 23.371433 C 72.561916 22.54587 72.223445 21.814066 71.752762 21.180307 C 71.28208 20.546549 70.686184 20.032903 69.960159 19.64763 C 69.234449 19.25807 68.370539 19.048015 67.364144 19.017151 L 66.374791 34.354578 C 67.364409 34.203167 68.263421 33.876985 69.067538 33.375718 C 69.875943 32.874767 70.572494 32.25352 71.160849 31.520868 C 71.744917 30.787902 72.197146 29.971966 72.521823 29.073376 C 72.842213 28.174471 73.018408 27.243415 73.054066 26.289098 Z M 113.150136 9.170616 C 112.404624 14.973831 111.773105 20.750941 111.242717 26.500999 C 110.716931 32.247085 110.214348 38.029361 109.734653 43.852113 L 99.593494 44.593878 L 100.037185 40.785807 C 99.707763 41.162474 99.325757 41.492171 98.886878 41.774582 C 98.452602 42.053021 97.983206 42.281463 97.492183 42.452279 C 96.996557 42.627067 96.483275 42.74883 95.955995 42.82646 C 95.429031 42.899802 94.926969 42.927559 94.449811 42.90973 C 93.325765 42.896082 92.272897 42.67645 91.282315 42.25449 C 90.291418 41.836817 89.384436 41.274444 88.560737 40.575944 C 87.737354 39.873157 86.99568 39.05568 86.335714 38.123515 C 85.675748 37.191349 85.118488 36.210695 84.663934 35.181554 C 84.20938 34.152412 83.864216 33.101137 83.624155 32.027412 C 83.388381 30.954003 83.266475 29.914827 83.267013 28.910513 C 83.268229 27.42778 83.294979 25.890887 83.351865 24.295862 C 83.412723 22.705439 83.512798 21.109277 83.664636 19.512609 C 83.812502 17.911339 84.006584 16.326398 84.242278 14.761757 C 84.482576 13.193143 84.782457 11.693567 85.146524 10.259056 C 87.160766 10.359686 89.180241 10.447769 91.208606 10.532194 C 93.237286 10.612332 95.256886 10.640076 97.268034 10.606852 C 96.886818 12.040103 96.51386 13.478271 96.140588 14.920726 C 95.771603 16.363497 95.436287 17.817363 95.139557 19.274065 C 94.842512 20.735055 94.60549 22.200456 94.424519 23.665666 C 94.243233 25.135164 94.151351 26.619854 94.148874 28.119737 C 94.149389 28.464617 94.168886 28.961761 94.199421 29.601964 C 94.233929 30.246769 94.32083 30.882493 94.460125 31.509137 C 94.599419 32.135781 94.813615 32.681719 95.102395 33.15124 C 95.39086 33.625047 95.800499 33.85775 96.326394 33.857608 C 96.955816 33.856455 97.514111 33.591441 98.010483 33.054624 C 98.502567 32.517491 98.943576 31.795562 99.320647 30.887892 C 99.701691 29.984824 100.024536 28.935231 100.297126 27.748318 C 100.569716 26.561405 100.798926 25.319577 100.988729 24.027437 C 101.178847 22.731009 101.331009 21.423171 101.449503 20.104237 C 101.563709 18.784988 101.650491 17.545623 101.705876 16.38154 C 101.765549 15.217773 101.807509 14.177708 101.832386 13.252773 C 101.857263 12.327837 101.866699 11.612983 101.869899 11.100265 C 101.868124 10.772534 101.861746 10.448776 101.845848 10.137249 C 101.825978 9.82112 101.802136 9.500389 101.770349 9.170452 C 102.841055 9.206043 103.904132 9.228141 104.958949 9.245322 C 106.018053 9.262818 107.077788 9.27174 108.15133 9.268744 C 108.974629 9.268909 109.806818 9.265416 110.639322 9.257636 C 111.471826 9.249856 112.305906 9.220639 113.150136 9.170616 Z M 137.216943 10.21103 L 136.324665 20.650209 C 135.847441 20.515991 135.375639 20.425277 134.913549 20.378382 C 134.451773 20.3272 133.98382 20.301427 133.505401 20.300748 C 132.332934 20.300783 131.218351 20.45163 130.153393 20.748373 C 129.088434 21.045115 128.149958 21.497712 127.33336 22.110135 C 126.517078 22.718271 125.865548 23.489385 125.379087 24.419189 C 124.89231 25.35328 124.647775 26.451734 124.649137 27.723441 C 124.650299 28.645979 124.785249 29.449036 125.057958 30.137212 C 125.330983 30.8211 125.716042 31.388218 126.221397 31.843483 C 126.722779 32.294145 127.331279 32.636296 128.051184 32.870251 C 128.767117 33.099603 129.564759 33.214266 130.439821 33.213924 C 131.047491 33.215482 131.672751 33.153675 132.315599 33.028503 C 132.962419 32.907933 133.604446 32.735285 134.245021 32.523735 C 134.890199 32.308213 135.507572 32.060473 136.101426 31.780831 C 136.695279 31.501189 137.24752 31.201247 137.757517 30.889578 L 137.364185 42.516341 C 136.719389 42.843965 136.029637 43.138111 135.286671 43.393862 C 134.543704 43.649612 133.781507 43.873776 132.996106 44.06175 C 132.214992 44.250039 131.432743 44.395139 130.649672 44.492763 C 129.866286 44.594674 129.117009 44.643055 128.410099 44.642824 C 126.069453 44.64321 123.937676 44.206341 122.01477 43.332219 C 120.091863 42.458096 118.44649 41.268151 117.066104 39.75715 C 115.689691 38.250752 114.624671 36.495678 113.866127 34.500187 C 113.107582 32.504696 112.725124 30.377358 112.727326 28.118802 C 112.727687 25.416126 113.111456 22.8925 113.878319 20.552209 C 114.645497 18.207631 115.773453 16.174065 117.266474 14.451826 C 118.759495 12.729587 120.604596 11.378067 122.806062 10.397583 C 125.007844 9.412812 127.535417 8.921833 130.388781 8.924648 C 131.526948 8.922092 132.67962 9.015434 133.851714 9.196414 C 135.023808 9.377393 136.145656 9.71417 137.216943 10.21103 Z M 168.976054 12.040971 L 158.04084 25.052488 L 168.083543 42.071491 L 156.606469 44.098746 L 149.087901 33.907792 L 148.689971 43.6031 L 138.401581 44.002132 L 139.194943 8.576163 L 150.721339 9.22075 L 149.830189 19.410001 L 157.004207 9.070441 Z M 168.976054 12.040971 " stroke="#19191b" stroke-width="2.786674" stroke-opacity="1" stroke-miterlimit="4"/><g fill="#f8e505" fill-opacity="1"><g transform="translate(137.547381, 232.549351)"><g><path d="M 18.9375 -13.609375 L 18.734375 -4.078125 L 0.890625 -1.359375 C 0.609375 -6.316406 0.34375 -11.253906 0.09375 -16.171875 C -0.15625 -21.085938 -0.382812 -26.03125 -0.59375 -31 L 10.484375 -31.8125 C 10.390625 -28.664062 10.304688 -25.53125 10.234375 -22.40625 C 10.160156 -19.28125 10.175781 -16.140625 10.28125 -12.984375 C 10.945312 -12.992188 11.609375 -13.019531 12.265625 -13.0625 C 12.921875 -13.113281 13.578125 -13.164062 14.234375 -13.21875 C 15.035156 -13.28125 15.820312 -13.347656 16.59375 -13.421875 C 17.363281 -13.492188 18.144531 -13.554688 18.9375 -13.609375 Z M 18.9375 -13.609375 "/></g></g></g><g fill="#f8e505" fill-opacity="1"><g transform="translate(156.412872, 231.162751)"><g><path d="M 10.40625 -30.9375 L 10.171875 -1.734375 L 1.234375 -0.609375 L -0.890625 -29.515625 Z M 10.40625 -30.9375 "/></g></g></g><g fill="#f8e505" fill-opacity="1"><g transform="translate(168.521133, 230.272802)"><g><path d="M 22.09375 -13.03125 C 22.226562 -11.082031 22.007812 -9.351562 21.4375 -7.84375 C 20.875 -6.332031 20.039062 -5.050781 18.9375 -4 C 17.84375 -2.957031 16.523438 -2.132812 14.984375 -1.53125 C 13.453125 -0.9375 11.78125 -0.570312 9.96875 -0.4375 C 9.269531 -0.382812 8.5 -0.414062 7.65625 -0.53125 C 6.820312 -0.65625 5.96875 -0.828125 5.09375 -1.046875 C 4.21875 -1.265625 3.375 -1.503906 2.5625 -1.765625 C 1.75 -2.023438 1.023438 -2.28125 0.390625 -2.53125 L 0.6875 -11.359375 C 1.9375 -10.734375 3.3125 -10.28125 4.8125 -10 C 6.320312 -9.726562 7.78125 -9.644531 9.1875 -9.75 C 9.457031 -9.769531 9.785156 -9.804688 10.171875 -9.859375 C 10.554688 -9.910156 10.921875 -10.003906 11.265625 -10.140625 C 11.609375 -10.273438 11.894531 -10.457031 12.125 -10.6875 C 12.351562 -10.914062 12.453125 -11.226562 12.421875 -11.625 C 12.398438 -11.894531 12.296875 -12.117188 12.109375 -12.296875 C 11.921875 -12.484375 11.6875 -12.625 11.40625 -12.71875 C 11.132812 -12.820312 10.820312 -12.894531 10.46875 -12.9375 C 10.125 -12.976562 9.785156 -13 9.453125 -13 C 9.117188 -13 8.8125 -12.988281 8.53125 -12.96875 C 8.25 -12.945312 8.019531 -12.929688 7.84375 -12.921875 C 6.632812 -12.835938 5.507812 -12.96875 4.46875 -13.3125 C 3.4375 -13.664062 2.535156 -14.195312 1.765625 -14.90625 C 0.992188 -15.613281 0.375 -16.476562 -0.09375 -17.5 C -0.570312 -18.519531 -0.859375 -19.632812 -0.953125 -20.84375 C -1.078125 -22.53125 -0.847656 -24.0625 -0.265625 -25.4375 C 0.316406 -26.8125 1.132812 -28.003906 2.1875 -29.015625 C 3.238281 -30.035156 4.476562 -30.847656 5.90625 -31.453125 C 7.332031 -32.066406 8.832031 -32.429688 10.40625 -32.546875 C 11.101562 -32.597656 11.820312 -32.625 12.5625 -32.625 C 13.300781 -32.625 14.039062 -32.585938 14.78125 -32.515625 C 15.53125 -32.441406 16.257812 -32.328125 16.96875 -32.171875 C 17.675781 -32.023438 18.351562 -31.828125 19 -31.578125 L 18.828125 -22.859375 C 17.835938 -23.109375 16.800781 -23.304688 15.71875 -23.453125 C 14.644531 -23.597656 13.609375 -23.632812 12.609375 -23.5625 C 12.429688 -23.550781 12.191406 -23.53125 11.890625 -23.5 C 11.597656 -23.46875 11.296875 -23.421875 10.984375 -23.359375 C 10.671875 -23.304688 10.351562 -23.234375 10.03125 -23.140625 C 9.707031 -23.046875 9.421875 -22.925781 9.171875 -22.78125 C 8.921875 -22.644531 8.722656 -22.46875 8.578125 -22.25 C 8.441406 -22.039062 8.390625 -21.800781 8.421875 -21.53125 C 8.453125 -21.21875 8.585938 -20.972656 8.828125 -20.796875 C 9.066406 -20.628906 9.363281 -20.503906 9.71875 -20.421875 C 10.082031 -20.347656 10.472656 -20.304688 10.890625 -20.296875 C 11.304688 -20.285156 11.722656 -20.289062 12.140625 -20.3125 C 12.554688 -20.332031 12.9375 -20.359375 13.28125 -20.390625 C 13.632812 -20.429688 13.925781 -20.441406 14.15625 -20.421875 C 15.3125 -20.429688 16.359375 -20.265625 17.296875 -19.921875 C 18.242188 -19.578125 19.050781 -19.082031 19.71875 -18.4375 C 20.394531 -17.800781 20.9375 -17.023438 21.34375 -16.109375 C 21.757812 -15.191406 22.007812 -14.164062 22.09375 -13.03125 Z M 22.09375 -13.03125 "/></g></g></g><g fill="#f8e505" fill-opacity="1"><g transform="translate(190.81853, 228.633959)"><g><path d="M 21.390625 -32.21875 L 21.828125 -23.15625 L 15.5 -22.4375 L 15.359375 -2.125 L 6.40625 -0.984375 L 4.96875 -21.1875 L -1.375 -20.390625 L -1.84375 -30.484375 Z M 21.390625 -32.21875 "/></g></g></g><g fill="#f8e505" fill-opacity="1"><g transform="translate(213.648831, 226.955948)"><g><path d="M 19 -32.3125 C 19.019531 -30.957031 19.039062 -29.625 19.0625 -28.3125 C 19.09375 -27.007812 19.101562 -25.6875 19.09375 -24.34375 L 10.078125 -23.203125 L 10.078125 -20.5 L 16.4375 -20.96875 L 16.4375 -14.328125 L 10.0625 -13.65625 L 10.0625 -10.515625 L 15.359375 -10.90625 L 19.109375 -11.171875 C 19.140625 -9.609375 19.164062 -8.050781 19.1875 -6.5 C 19.207031 -4.945312 19.242188 -3.394531 19.296875 -1.84375 L 0.9375 -0.0625 L -0.640625 -30.875 Z M 19 -32.3125 "/></g></g></g><g fill="#f8e505" fill-opacity="1"><g transform="translate(233.686712, 225.483177)"><g><path d="M 24.546875 -22.46875 C 24.628906 -21.363281 24.609375 -20.347656 24.484375 -19.421875 C 24.367188 -18.503906 24.132812 -17.65625 23.78125 -16.875 C 23.425781 -16.09375 22.941406 -15.359375 22.328125 -14.671875 C 21.722656 -13.984375 20.976562 -13.3125 20.09375 -12.65625 L 25.828125 -4 L 16.375 -1.421875 L 12.421875 -10.265625 L 9.796875 -9.96875 L 10.046875 -1.078125 L 0.890625 -0.40625 C 0.734375 -3.65625 0.566406 -6.882812 0.390625 -10.09375 C 0.210938 -13.3125 0.046875 -16.546875 -0.109375 -19.796875 C -0.191406 -21.441406 -0.28125 -23.066406 -0.375 -24.671875 C -0.46875 -26.273438 -0.523438 -27.898438 -0.546875 -29.546875 C 0.398438 -29.992188 1.347656 -30.367188 2.296875 -30.671875 C 3.253906 -30.984375 4.210938 -31.242188 5.171875 -31.453125 C 6.140625 -31.660156 7.125 -31.828125 8.125 -31.953125 C 9.125 -32.078125 10.148438 -32.175781 11.203125 -32.25 C 12.816406 -32.375 14.394531 -32.265625 15.9375 -31.921875 C 17.476562 -31.585938 18.867188 -31.015625 20.109375 -30.203125 C 21.347656 -29.390625 22.363281 -28.34375 23.15625 -27.0625 C 23.957031 -25.78125 24.421875 -24.25 24.546875 -22.46875 Z M 15.0625 -21.09375 C 15.007812 -21.6875 14.882812 -22.222656 14.6875 -22.703125 C 14.488281 -23.179688 14.210938 -23.59375 13.859375 -23.9375 C 13.515625 -24.28125 13.097656 -24.535156 12.609375 -24.703125 C 12.128906 -24.878906 11.566406 -24.945312 10.921875 -24.90625 C 10.640625 -24.882812 10.363281 -24.84375 10.09375 -24.78125 C 9.832031 -24.726562 9.570312 -24.65625 9.3125 -24.5625 L 9.5625 -16.59375 L 10.078125 -16.640625 C 10.691406 -16.679688 11.304688 -16.800781 11.921875 -17 C 12.546875 -17.207031 13.097656 -17.492188 13.578125 -17.859375 C 14.054688 -18.222656 14.4375 -18.675781 14.71875 -19.21875 C 15 -19.757812 15.113281 -20.382812 15.0625 -21.09375 Z M 15.0625 -21.09375 "/></g></g></g><path stroke-linecap="butt" transform="matrix(0.8618, -0.0633417, 0.0633417, 0.8618, 100.517275, 197.147008)" fill="none" stroke-linejoin="miter" d="M 62.739906 29.900742 L 61.701469 40.884122 L 40.871707 42.51695 C 40.973104 36.758851 41.080866 31.037482 41.204343 25.348996 C 41.327819 19.660511 41.480996 13.937947 41.663874 8.181305 L 54.527384 8.183969 C 54.148928 11.791351 53.783996 15.399727 53.437429 19.00492 C 53.091193 22.605604 52.84666 26.24096 52.695476 29.901307 C 53.472894 29.931251 54.23745 29.951184 54.994645 29.947913 C 55.756018 29.949481 56.521899 29.951381 57.297128 29.949435 C 58.221794 29.949407 59.128758 29.943546 60.018682 29.922834 C 60.908276 29.906631 61.81524 29.900769 62.739906 29.900742 Z M 76.243239 9.172692 L 73.522228 42.863443 L 63.0844 43.40621 L 63.083926 9.864447 Z M 102.268323 30.838876 C 102.265275 33.100452 101.875366 35.075232 101.094088 36.762885 C 100.30797 38.454715 99.234506 39.862531 97.874027 40.981824 C 96.513217 42.105625 94.924 42.945211 93.101535 43.504759 C 91.279071 44.064307 89.322875 44.346599 87.228769 44.346794 C 86.417473 44.346089 85.532318 44.240237 84.569126 44.024397 C 83.601426 43.808227 82.628355 43.541802 81.636717 43.219621 C 80.64508 42.897439 79.696006 42.551191 78.780478 42.180211 C 77.864951 41.809232 77.05212 41.459399 76.341986 41.130712 L 77.430966 30.93973 C 78.83314 31.781614 80.386467 32.417039 82.094795 32.855354 C 83.803123 33.293668 85.477765 33.511939 87.127737 33.510829 C 87.440467 33.511151 87.822147 33.498411 88.267938 33.476784 C 88.709552 33.450318 89.136446 33.377443 89.539935 33.252988 C 89.943425 33.128534 90.288105 32.940832 90.564629 32.693729 C 90.845661 32.446958 90.984878 32.094577 90.987118 31.632409 C 90.98744 31.319679 90.889443 31.049582 90.688286 30.826294 C 90.491638 30.603338 90.237245 30.425997 89.921262 30.284923 C 89.609787 30.144181 89.255087 30.036523 88.861669 29.96228 C 88.463743 29.887706 88.077685 29.836668 87.695141 29.799486 C 87.316774 29.767143 86.964463 29.750314 86.633369 29.753175 C 86.302605 29.751527 86.039798 29.750342 85.840106 29.753795 C 84.421384 29.753771 83.134256 29.505058 81.969376 29.0115 C 80.809335 28.513765 79.80814 27.828268 78.975802 26.942147 C 78.143132 26.060533 77.499209 25.016019 77.035348 23.803432 C 76.575995 22.591177 76.341657 21.277611 76.341681 19.858888 C 76.344407 17.910042 76.73545 16.166511 77.519649 14.624118 C 78.29934 13.081394 79.347481 11.771436 80.659564 10.693913 C 81.971977 9.611881 83.474211 8.784032 85.175614 8.206521 C 86.872508 7.628678 88.629676 7.340824 90.44261 7.342626 C 91.249728 7.338491 92.081577 7.367903 92.942996 7.426684 C 93.799907 7.485133 94.653503 7.588666 95.499278 7.736951 C 96.349562 7.885567 97.17883 8.073432 97.986751 8.305055 C 98.794672 8.536678 99.562219 8.824258 100.28906 9.172303 L 99.346927 19.215435 C 98.228194 18.834053 97.050391 18.516319 95.822534 18.262897 C 94.595009 18.004966 93.39394 17.880427 92.2245 17.880594 C 92.011615 17.878546 91.734952 17.880874 91.394177 17.892089 C 91.058243 17.899127 90.70295 17.922872 90.332806 17.963657 C 89.962663 18.004442 89.586354 18.067436 89.20388 18.152641 C 88.826246 18.23367 88.487198 18.34473 88.191246 18.486154 C 87.895625 18.623069 87.655298 18.809375 87.475106 19.040895 C 87.294913 19.272415 87.211584 19.542783 87.229295 19.856839 C 87.243361 20.220486 87.380608 20.511599 87.636196 20.734354 C 87.891783 20.957109 88.218972 21.130736 88.626778 21.255895 C 89.030076 21.380723 89.472753 21.463119 89.958657 21.512431 C 90.449069 21.562073 90.927281 21.592689 91.40715 21.600763 C 91.88702 21.608837 92.331154 21.609752 92.744392 21.599331 C 93.157299 21.593418 93.491908 21.604413 93.756905 21.637488 C 95.078834 21.721051 96.263796 22.00305 97.32114 22.479639 C 98.373975 22.955896 99.269953 23.592865 100.004896 24.385708 C 100.735662 25.17371 101.296046 26.121431 101.687041 27.215346 C 102.073197 28.313437 102.265565 29.519667 102.268323 30.838876 Z M 128.957399 8.627797 L 128.707768 19.116169 L 121.338494 19.413075 L 119.456317 42.86273 L 109.018488 43.405498 L 109.069367 19.957224 L 101.697311 20.353644 L 101.993515 8.676604 Z M 152.725885 8.330532 C 152.625422 9.882385 152.535634 11.412359 152.455856 12.929471 C 152.371569 14.446252 152.263085 15.983918 152.131064 17.533451 L 141.643313 18.077082 L 141.396312 21.191 L 148.770766 21.19363 L 148.225159 28.863593 L 140.805431 29.106932 L 140.558046 32.719415 L 146.690596 32.721419 L 151.04661 32.719763 C 150.944962 34.534424 150.844308 36.33556 150.735301 38.127016 C 150.626625 39.913964 150.531142 41.706415 150.448853 43.504368 L 129.127055 43.999593 L 129.917459 8.331215 Z M 181.541379 20.152888 C 181.541948 21.440207 181.433584 22.606203 181.211449 23.655053 C 180.984806 24.703571 180.637894 25.661662 180.156527 26.537348 C 179.679999 27.408856 179.06285 28.22017 178.301235 28.961941 C 177.544127 29.704043 176.630886 30.412007 175.557002 31.0855 L 181.444429 41.576207 L 170.31078 43.753984 L 166.502739 33.216672 L 163.436103 33.313096 L 162.992343 43.605893 L 152.354343 43.603626 C 152.435844 39.842971 152.516019 36.100349 152.590361 32.375429 C 152.665034 28.646001 152.749718 24.90371 152.849252 21.14438 C 152.8844 19.247777 152.913714 17.368875 152.946542 15.503829 C 152.97937 13.638784 153.045082 11.758025 153.148186 9.861883 C 154.299182 9.434289 155.440369 9.078497 156.557889 8.798021 C 157.679917 8.517876 158.806323 8.30151 159.937438 8.144415 C 161.064044 7.986988 162.214056 7.881141 163.374278 7.821371 C 164.538678 7.766441 165.728471 7.736041 166.947834 7.73501 C 168.828724 7.737274 170.645312 7.997707 172.402107 8.516639 C 174.158901 9.035572 175.71515 9.816257 177.066677 10.853855 C 178.418204 11.891453 179.501561 13.185834 180.316749 14.736996 C 181.136444 16.28849 181.543372 18.090672 181.541379 20.152888 Z M 170.459533 20.947477 C 170.46064 20.25406 170.366941 19.617133 170.178105 19.041203 C 169.98927 18.465273 169.708812 17.964197 169.3364 17.542483 C 168.963657 17.125277 168.503138 16.792274 167.949339 16.556665 C 167.40038 16.31688 166.751976 16.1967 166.008637 16.196457 C 165.677873 16.194809 165.358978 16.216697 165.043266 16.25695 C 164.732061 16.297534 164.423709 16.360991 164.127556 16.443475 L 163.732095 25.64745 L 164.325997 25.645775 C 165.037779 25.643698 165.755856 25.555964 166.489908 25.374217 C 167.22396 25.192471 167.883821 24.910086 168.469159 24.53157 C 169.054498 24.153054 169.534419 23.667071 169.904413 23.07329 C 170.274408 22.479509 170.462674 21.76812 170.459533 20.947477 Z M 170.459533 20.947477 " stroke="#19191b" stroke-width="2.786674" stroke-opacity="1" stroke-miterlimit="4"/><g fill="#f8e505" fill-opacity="1"><g transform="translate(144.006791, 243.281103)"><g><path d="M 2.609375 0 L 2.609375 -3.390625 L 6.351562 -3.390625 L 6.351562 -4.722656 L 2.609375 -4.722656 L 2.609375 -7.214844 L 6.941406 -7.214844 L 6.941406 -8.632812 L 1.027344 -8.632812 L 1.027344 0 Z M 2.609375 0 "/></g></g></g><g fill="#f8e505" fill-opacity="1"><g transform="translate(154.359088, 243.281103)"><g><path d="M 5.070312 0.183594 C 7.640625 0.183594 9.730469 -1.820312 9.730469 -4.328125 C 9.730469 -6.835938 7.640625 -8.835938 5.070312 -8.835938 C 2.5 -8.835938 0.417969 -6.835938 0.417969 -4.328125 C 0.417969 -1.820312 2.5 0.183594 5.070312 0.183594 Z M 5.070312 -1.269531 C 3.375 -1.269531 2 -2.570312 2 -4.320312 C 2 -6.078125 3.371094 -7.386719 5.070312 -7.386719 C 6.777344 -7.386719 8.15625 -6.085938 8.15625 -4.320312 C 8.15625 -2.570312 6.777344 -1.269531 5.070312 -1.269531 Z M 5.070312 -1.269531 "/></g></g></g><g fill="#f8e505" fill-opacity="1"><g transform="translate(167.547939, 243.281103)"><g><path d="M 2.609375 0 L 2.609375 -3.058594 L 4.085938 -3.058594 C 4.203125 -3.058594 4.308594 -3.058594 4.421875 -3.066406 L 6.128906 0 L 7.945312 0 L 5.992188 -3.304688 C 7.050781 -3.675781 7.75 -4.601562 7.75 -5.820312 C 7.75 -7.5 6.5 -8.632812 4.753906 -8.632812 L 1.027344 -8.632812 L 1.027344 0 Z M 2.609375 -7.222656 L 4.691406 -7.222656 C 5.527344 -7.222656 6.167969 -6.605469 6.167969 -5.820312 C 6.167969 -4.976562 5.535156 -4.398438 4.695312 -4.390625 L 2.609375 -4.390625 Z M 2.609375 -7.222656 "/></g></g></g><g fill="#f8e505" fill-opacity="1"><g transform="translate(178.807683, 243.281103)"><g/></g></g><g fill="#f8e505" fill-opacity="1"><g transform="translate(185.016211, 243.281103)"><g><path d="M 1.617188 0 C 3.425781 0 4.753906 -1.074219 4.753906 -2.945312 L 4.753906 -8.632812 L 3.1875 -8.632812 L 3.1875 -3.035156 C 3.1875 -2.039062 2.5625 -1.414062 1.625 -1.414062 L 0.246094 -1.414062 L 0.246094 0 Z M 1.617188 0 "/></g></g></g><g fill="#f8e505" fill-opacity="1"><g transform="translate(193.680538, 243.281103)"><g><path d="M 7 0 L 7 -1.414062 L 2.609375 -1.414062 L 2.609375 -3.71875 L 6.351562 -3.71875 L 6.351562 -5.050781 L 2.609375 -5.050781 L 2.609375 -7.214844 L 6.941406 -7.214844 L 6.941406 -8.632812 L 1.027344 -8.632812 L 1.027344 0 Z M 7 0 "/></g></g></g><g fill="#f8e505" fill-opacity="1"><g transform="translate(204.134366, 243.281103)"><g><path d="M 7 0 L 7 -1.414062 L 2.609375 -1.414062 L 2.609375 -3.71875 L 6.351562 -3.71875 L 6.351562 -5.050781 L 2.609375 -5.050781 L 2.609375 -7.214844 L 6.941406 -7.214844 L 6.941406 -8.632812 L 1.027344 -8.632812 L 1.027344 0 Z M 7 0 "/></g></g></g><g fill="#f8e505" fill-opacity="1"><g transform="translate(214.588194, 243.281103)"><g><path d="M 2.609375 0 L 2.609375 -2.753906 L 4.691406 -2.753906 C 6.421875 -2.753906 7.660156 -3.949219 7.660156 -5.722656 C 7.660156 -7.40625 6.410156 -8.632812 4.664062 -8.632812 L 1.027344 -8.632812 L 1.027344 0 Z M 2.609375 -7.222656 L 4.601562 -7.222656 C 5.4375 -7.222656 6.078125 -6.511719 6.078125 -5.722656 C 6.078125 -4.835938 5.4375 -4.164062 4.613281 -4.164062 L 2.609375 -4.164062 Z M 2.609375 -7.222656 "/></g></g></g><g fill="#f8e505" fill-opacity="1"><g transform="translate(157.940384, 261.281102)"><g><path d="M 2.609375 0 L 2.609375 -2.753906 L 4.691406 -2.753906 C 6.421875 -2.753906 7.660156 -3.949219 7.660156 -5.722656 C 7.660156 -7.40625 6.410156 -8.632812 4.664062 -8.632812 L 1.027344 -8.632812 L 1.027344 0 Z M 2.609375 -7.222656 L 4.601562 -7.222656 C 5.4375 -7.222656 6.078125 -6.511719 6.078125 -5.722656 C 6.078125 -4.835938 5.4375 -4.164062 4.613281 -4.164062 L 2.609375 -4.164062 Z M 2.609375 -7.222656 "/></g></g></g><g fill="#f8e505" fill-opacity="1"><g transform="translate(168.838415, 261.281102)"><g><path d="M 7 0 L 7 -1.414062 L 2.609375 -1.414062 L 2.609375 -3.71875 L 6.351562 -3.71875 L 6.351562 -5.050781 L 2.609375 -5.050781 L 2.609375 -7.214844 L 6.941406 -7.214844 L 6.941406 -8.632812 L 1.027344 -8.632812 L 1.027344 0 Z M 7 0 "/></g></g></g><g fill="#f8e505" fill-opacity="1"><g transform="translate(179.292243, 261.281102)"><g><path d="M 7 0 L 7 -1.414062 L 2.609375 -1.414062 L 2.609375 -3.71875 L 6.351562 -3.71875 L 6.351562 -5.050781 L 2.609375 -5.050781 L 2.609375 -7.214844 L 6.941406 -7.214844 L 6.941406 -8.632812 L 1.027344 -8.632812 L 1.027344 0 Z M 7 0 "/></g></g></g><g fill="#f8e505" fill-opacity="1"><g transform="translate(189.746071, 261.281102)"><g><path d="M 2.609375 0 L 2.609375 -2.753906 L 4.691406 -2.753906 C 6.421875 -2.753906 7.660156 -3.949219 7.660156 -5.722656 C 7.660156 -7.40625 6.410156 -8.632812 4.664062 -8.632812 L 1.027344 -8.632812 L 1.027344 0 Z M 2.609375 -7.222656 L 4.601562 -7.222656 C 5.4375 -7.222656 6.078125 -6.511719 6.078125 -5.722656 C 6.078125 -4.835938 5.4375 -4.164062 4.613281 -4.164062 L 2.609375 -4.164062 Z M 2.609375 -7.222656 "/></g></g></g><g fill="#f8e505" fill-opacity="1"><g transform="translate(200.644101, 261.281102)"><g><path d="M 3.941406 0.195312 C 6.074219 0.195312 7.457031 -0.742188 7.457031 -2.417969 C 7.457031 -4.144531 5.984375 -4.773438 4.398438 -5.066406 C 2.949219 -5.300781 2.234375 -5.628906 2.234375 -6.351562 C 2.234375 -6.898438 2.558594 -7.449219 3.863281 -7.449219 C 5.039062 -7.449219 5.554688 -6.910156 5.554688 -6.246094 L 7.132812 -6.246094 C 7.132812 -7.792969 6.035156 -8.835938 3.882812 -8.835938 C 1.644531 -8.835938 0.652344 -7.761719 0.652344 -6.359375 C 0.652344 -4.570312 2.425781 -4.050781 3.871094 -3.75 C 5.070312 -3.523438 5.859375 -3.222656 5.859375 -2.425781 C 5.859375 -1.566406 5.230469 -1.136719 3.933594 -1.136719 C 2.714844 -1.136719 2.011719 -1.785156 2.011719 -2.589844 L 0.429688 -2.589844 C 0.429688 -1.238281 1.445312 0.195312 3.941406 0.195312 Z M 3.941406 0.195312 "/></g></g></g></svg>